<?xml version="1.0" encoding="utf-8" standalone="no"?>
<!DOCTYPE svg PUBLIC "-//W3C//DTD SVG 1.1//EN"
  "http://www.w3.org/Graphics/SVG/1.1/DTD/svg11.dtd">
<!-- Created with matplotlib (http://matplotlib.org/) -->
<svg height="360pt" version="1.1" viewBox="0 0 432 360" width="432pt" xmlns="http://www.w3.org/2000/svg" xmlns:xlink="http://www.w3.org/1999/xlink">
 <defs>
  <style type="text/css">
*{stroke-linecap:butt;stroke-linejoin:round;}
  </style>
 </defs>
 <g id="figure_1">
  <g id="patch_1">
   <path d="M 0 360 
L 432 360 
L 432 0 
L 0 0 
z
" style="fill:#ffffff;"/>
  </g>
  <g id="axes_1">
   <g id="patch_2">
    <path d="M 237.927 304.948 
L 410.448 304.948 
L 410.448 21.552 
L 237.927 21.552 
z
" style="fill:#ffffff;"/>
   </g>
   <g id="matplotlib.axis_1">
    <g id="xtick_1">
     <g id="line2d_1">
      <path clip-path="url(#p15e63ee40e)" d="M 237.927 304.948 
L 237.927 21.552 
" style="fill:none;stroke:#cccccc;stroke-linecap:round;"/>
     </g>
     <g id="text_1">
      <!-- 0.0 -->
      <defs>
       <path d="M 4.15625 35.296875 
Q 4.15625 48 6.765625 55.734375 
Q 9.375 63.484375 14.515625 67.671875 
Q 19.671875 71.875 27.484375 71.875 
Q 33.25 71.875 37.59375 69.546875 
Q 41.9375 67.234375 44.765625 62.859375 
Q 47.609375 58.5 49.21875 52.21875 
Q 50.828125 45.953125 50.828125 35.296875 
Q 50.828125 22.703125 48.234375 14.96875 
Q 45.65625 7.234375 40.5 3 
Q 35.359375 -1.21875 27.484375 -1.21875 
Q 17.140625 -1.21875 11.234375 6.203125 
Q 4.15625 15.140625 4.15625 35.296875 
z
M 13.1875 35.296875 
Q 13.1875 17.671875 17.3125 11.828125 
Q 21.4375 6 27.484375 6 
Q 33.546875 6 37.671875 11.859375 
Q 41.796875 17.71875 41.796875 35.296875 
Q 41.796875 52.984375 37.671875 58.78125 
Q 33.546875 64.59375 27.390625 64.59375 
Q 21.34375 64.59375 17.71875 59.46875 
Q 13.1875 52.9375 13.1875 35.296875 
z
" id="ArialMT-30"/>
       <path d="M 9.078125 0 
L 9.078125 10.015625 
L 19.09375 10.015625 
L 19.09375 0 
z
" id="ArialMT-2e"/>
      </defs>
      <g style="fill:#262626;" transform="translate(228.753 323.896313)scale(0.132 -0.132)">
       <use xlink:href="#ArialMT-30"/>
       <use x="55.615234" xlink:href="#ArialMT-2e"/>
       <use x="83.398438" xlink:href="#ArialMT-30"/>
      </g>
     </g>
    </g>
    <g id="xtick_2">
     <g id="line2d_2">
      <path clip-path="url(#p15e63ee40e)" d="M 286.186946 304.948 
L 286.186946 21.552 
" style="fill:none;stroke:#cccccc;stroke-linecap:round;"/>
     </g>
     <g id="text_2">
      <!-- 0.2 -->
      <defs>
       <path d="M 50.34375 8.453125 
L 50.34375 0 
L 3.03125 0 
Q 2.9375 3.171875 4.046875 6.109375 
Q 5.859375 10.9375 9.828125 15.625 
Q 13.8125 20.3125 21.34375 26.46875 
Q 33.015625 36.03125 37.109375 41.625 
Q 41.21875 47.21875 41.21875 52.203125 
Q 41.21875 57.421875 37.46875 61 
Q 33.734375 64.59375 27.734375 64.59375 
Q 21.390625 64.59375 17.578125 60.78125 
Q 13.765625 56.984375 13.71875 50.25 
L 4.6875 51.171875 
Q 5.609375 61.28125 11.65625 66.578125 
Q 17.71875 71.875 27.9375 71.875 
Q 38.234375 71.875 44.234375 66.15625 
Q 50.25 60.453125 50.25 52 
Q 50.25 47.703125 48.484375 43.546875 
Q 46.734375 39.40625 42.65625 34.8125 
Q 38.578125 30.21875 29.109375 22.21875 
Q 21.1875 15.578125 18.9375 13.203125 
Q 16.703125 10.84375 15.234375 8.453125 
z
" id="ArialMT-32"/>
      </defs>
      <g style="fill:#262626;" transform="translate(277.012946 323.896313)scale(0.132 -0.132)">
       <use xlink:href="#ArialMT-30"/>
       <use x="55.615234" xlink:href="#ArialMT-2e"/>
       <use x="83.398438" xlink:href="#ArialMT-32"/>
      </g>
     </g>
    </g>
    <g id="xtick_3">
     <g id="line2d_3">
      <path clip-path="url(#p15e63ee40e)" d="M 334.446893 304.948 
L 334.446893 21.552 
" style="fill:none;stroke:#cccccc;stroke-linecap:round;"/>
     </g>
     <g id="text_3">
      <!-- 0.4 -->
      <defs>
       <path d="M 32.328125 0 
L 32.328125 17.140625 
L 1.265625 17.140625 
L 1.265625 25.203125 
L 33.9375 71.578125 
L 41.109375 71.578125 
L 41.109375 25.203125 
L 50.78125 25.203125 
L 50.78125 17.140625 
L 41.109375 17.140625 
L 41.109375 0 
z
M 32.328125 25.203125 
L 32.328125 57.46875 
L 9.90625 25.203125 
z
" id="ArialMT-34"/>
      </defs>
      <g style="fill:#262626;" transform="translate(325.272893 323.896313)scale(0.132 -0.132)">
       <use xlink:href="#ArialMT-30"/>
       <use x="55.615234" xlink:href="#ArialMT-2e"/>
       <use x="83.398438" xlink:href="#ArialMT-34"/>
      </g>
     </g>
    </g>
    <g id="xtick_4">
     <g id="line2d_4">
      <path clip-path="url(#p15e63ee40e)" d="M 382.706839 304.948 
L 382.706839 21.552 
" style="fill:none;stroke:#cccccc;stroke-linecap:round;"/>
     </g>
     <g id="text_4">
      <!-- 0.6 -->
      <defs>
       <path d="M 49.75 54.046875 
L 41.015625 53.375 
Q 39.84375 58.546875 37.703125 60.890625 
Q 34.125 64.65625 28.90625 64.65625 
Q 24.703125 64.65625 21.53125 62.3125 
Q 17.390625 59.28125 14.984375 53.46875 
Q 12.59375 47.65625 12.5 36.921875 
Q 15.671875 41.75 20.265625 44.09375 
Q 24.859375 46.4375 29.890625 46.4375 
Q 38.671875 46.4375 44.84375 39.96875 
Q 51.03125 33.5 51.03125 23.25 
Q 51.03125 16.5 48.125 10.71875 
Q 45.21875 4.9375 40.140625 1.859375 
Q 35.0625 -1.21875 28.609375 -1.21875 
Q 17.625 -1.21875 10.6875 6.859375 
Q 3.765625 14.9375 3.765625 33.5 
Q 3.765625 54.25 11.421875 63.671875 
Q 18.109375 71.875 29.4375 71.875 
Q 37.890625 71.875 43.28125 67.140625 
Q 48.6875 62.40625 49.75 54.046875 
z
M 13.875 23.1875 
Q 13.875 18.65625 15.796875 14.5 
Q 17.71875 10.359375 21.1875 8.171875 
Q 24.65625 6 28.46875 6 
Q 34.03125 6 38.03125 10.484375 
Q 42.046875 14.984375 42.046875 22.703125 
Q 42.046875 30.125 38.078125 34.390625 
Q 34.125 38.671875 28.125 38.671875 
Q 22.171875 38.671875 18.015625 34.390625 
Q 13.875 30.125 13.875 23.1875 
z
" id="ArialMT-36"/>
      </defs>
      <g style="fill:#262626;" transform="translate(373.532839 323.896313)scale(0.132 -0.132)">
       <use xlink:href="#ArialMT-30"/>
       <use x="55.615234" xlink:href="#ArialMT-2e"/>
       <use x="83.398438" xlink:href="#ArialMT-36"/>
      </g>
     </g>
    </g>
    <g id="text_5">
     <!-- tree accuracy -->
     <defs>
      <path d="M 25.78125 7.859375 
L 27.046875 0.09375 
Q 23.34375 -0.6875 20.40625 -0.6875 
Q 15.625 -0.6875 12.984375 0.828125 
Q 10.359375 2.34375 9.28125 4.8125 
Q 8.203125 7.28125 8.203125 15.1875 
L 8.203125 45.015625 
L 1.765625 45.015625 
L 1.765625 51.859375 
L 8.203125 51.859375 
L 8.203125 64.703125 
L 16.9375 69.96875 
L 16.9375 51.859375 
L 25.78125 51.859375 
L 25.78125 45.015625 
L 16.9375 45.015625 
L 16.9375 14.703125 
Q 16.9375 10.9375 17.40625 9.859375 
Q 17.875 8.796875 18.921875 8.15625 
Q 19.96875 7.515625 21.921875 7.515625 
Q 23.390625 7.515625 25.78125 7.859375 
z
" id="ArialMT-74"/>
      <path d="M 6.5 0 
L 6.5 51.859375 
L 14.40625 51.859375 
L 14.40625 44 
Q 17.4375 49.515625 20 51.265625 
Q 22.5625 53.03125 25.640625 53.03125 
Q 30.078125 53.03125 34.671875 50.203125 
L 31.640625 42.046875 
Q 28.421875 43.953125 25.203125 43.953125 
Q 22.3125 43.953125 20.015625 42.21875 
Q 17.71875 40.484375 16.75 37.40625 
Q 15.28125 32.71875 15.28125 27.15625 
L 15.28125 0 
z
" id="ArialMT-72"/>
      <path d="M 42.09375 16.703125 
L 51.171875 15.578125 
Q 49.03125 7.625 43.21875 3.21875 
Q 37.40625 -1.171875 28.375 -1.171875 
Q 17 -1.171875 10.328125 5.828125 
Q 3.65625 12.84375 3.65625 25.484375 
Q 3.65625 38.578125 10.390625 45.796875 
Q 17.140625 53.03125 27.875 53.03125 
Q 38.28125 53.03125 44.875 45.953125 
Q 51.46875 38.875 51.46875 26.03125 
Q 51.46875 25.25 51.421875 23.6875 
L 12.75 23.6875 
Q 13.234375 15.140625 17.578125 10.59375 
Q 21.921875 6.0625 28.421875 6.0625 
Q 33.25 6.0625 36.671875 8.59375 
Q 40.09375 11.140625 42.09375 16.703125 
z
M 13.234375 30.90625 
L 42.1875 30.90625 
Q 41.609375 37.453125 38.875 40.71875 
Q 34.671875 45.796875 27.984375 45.796875 
Q 21.921875 45.796875 17.796875 41.75 
Q 13.671875 37.703125 13.234375 30.90625 
z
" id="ArialMT-65"/>
      <path id="ArialMT-20"/>
      <path d="M 40.4375 6.390625 
Q 35.546875 2.25 31.03125 0.53125 
Q 26.515625 -1.171875 21.34375 -1.171875 
Q 12.796875 -1.171875 8.203125 3 
Q 3.609375 7.171875 3.609375 13.671875 
Q 3.609375 17.484375 5.34375 20.625 
Q 7.078125 23.78125 9.890625 25.6875 
Q 12.703125 27.59375 16.21875 28.5625 
Q 18.796875 29.25 24.03125 29.890625 
Q 34.671875 31.15625 39.703125 32.90625 
Q 39.75 34.71875 39.75 35.203125 
Q 39.75 40.578125 37.25 42.78125 
Q 33.890625 45.75 27.25 45.75 
Q 21.046875 45.75 18.09375 43.578125 
Q 15.140625 41.40625 13.71875 35.890625 
L 5.125 37.0625 
Q 6.296875 42.578125 8.984375 45.96875 
Q 11.671875 49.359375 16.75 51.1875 
Q 21.828125 53.03125 28.515625 53.03125 
Q 35.15625 53.03125 39.296875 51.46875 
Q 43.453125 49.90625 45.40625 47.53125 
Q 47.359375 45.171875 48.140625 41.546875 
Q 48.578125 39.3125 48.578125 33.453125 
L 48.578125 21.734375 
Q 48.578125 9.46875 49.140625 6.21875 
Q 49.703125 2.984375 51.375 0 
L 42.1875 0 
Q 40.828125 2.734375 40.4375 6.390625 
z
M 39.703125 26.03125 
Q 34.90625 24.078125 25.34375 22.703125 
Q 19.921875 21.921875 17.671875 20.9375 
Q 15.4375 19.96875 14.203125 18.09375 
Q 12.984375 16.21875 12.984375 13.921875 
Q 12.984375 10.40625 15.640625 8.0625 
Q 18.3125 5.71875 23.4375 5.71875 
Q 28.515625 5.71875 32.46875 7.9375 
Q 36.421875 10.15625 38.28125 14.015625 
Q 39.703125 17 39.703125 22.796875 
z
" id="ArialMT-61"/>
      <path d="M 40.4375 19 
L 49.078125 17.875 
Q 47.65625 8.9375 41.8125 3.875 
Q 35.984375 -1.171875 27.484375 -1.171875 
Q 16.84375 -1.171875 10.375 5.78125 
Q 3.90625 12.75 3.90625 25.734375 
Q 3.90625 34.125 6.6875 40.421875 
Q 9.46875 46.734375 15.15625 49.875 
Q 20.84375 53.03125 27.546875 53.03125 
Q 35.984375 53.03125 41.359375 48.75 
Q 46.734375 44.484375 48.25 36.625 
L 39.703125 35.296875 
Q 38.484375 40.53125 35.375 43.15625 
Q 32.28125 45.796875 27.875 45.796875 
Q 21.234375 45.796875 17.078125 41.03125 
Q 12.9375 36.28125 12.9375 25.984375 
Q 12.9375 15.53125 16.9375 10.796875 
Q 20.953125 6.0625 27.390625 6.0625 
Q 32.5625 6.0625 36.03125 9.234375 
Q 39.5 12.40625 40.4375 19 
z
" id="ArialMT-63"/>
      <path d="M 40.578125 0 
L 40.578125 7.625 
Q 34.515625 -1.171875 24.125 -1.171875 
Q 19.53125 -1.171875 15.546875 0.578125 
Q 11.578125 2.34375 9.640625 5 
Q 7.71875 7.671875 6.9375 11.53125 
Q 6.390625 14.109375 6.390625 19.734375 
L 6.390625 51.859375 
L 15.1875 51.859375 
L 15.1875 23.09375 
Q 15.1875 16.21875 15.71875 13.8125 
Q 16.546875 10.359375 19.234375 8.375 
Q 21.921875 6.390625 25.875 6.390625 
Q 29.828125 6.390625 33.296875 8.421875 
Q 36.765625 10.453125 38.203125 13.9375 
Q 39.65625 17.4375 39.65625 24.078125 
L 39.65625 51.859375 
L 48.4375 51.859375 
L 48.4375 0 
z
" id="ArialMT-75"/>
      <path d="M 6.203125 -19.96875 
L 5.21875 -11.71875 
Q 8.109375 -12.5 10.25 -12.5 
Q 13.1875 -12.5 14.9375 -11.515625 
Q 16.703125 -10.546875 17.828125 -8.796875 
Q 18.65625 -7.46875 20.515625 -2.25 
Q 20.75 -1.515625 21.296875 -0.09375 
L 1.609375 51.859375 
L 11.078125 51.859375 
L 21.875 21.828125 
Q 23.96875 16.109375 25.640625 9.8125 
Q 27.15625 15.875 29.25 21.625 
L 40.328125 51.859375 
L 49.125 51.859375 
L 29.390625 -0.875 
Q 26.21875 -9.421875 24.46875 -12.640625 
Q 22.125 -17 19.09375 -19.015625 
Q 16.0625 -21.046875 11.859375 -21.046875 
Q 9.328125 -21.046875 6.203125 -19.96875 
z
" id="ArialMT-79"/>
     </defs>
     <g style="fill:#262626;" transform="translate(280.972875 340.658313)scale(0.144 -0.144)">
      <use xlink:href="#ArialMT-74"/>
      <use x="27.783203" xlink:href="#ArialMT-72"/>
      <use x="61.083984" xlink:href="#ArialMT-65"/>
      <use x="116.699219" xlink:href="#ArialMT-65"/>
      <use x="172.314453" xlink:href="#ArialMT-20"/>
      <use x="200.097656" xlink:href="#ArialMT-61"/>
      <use x="255.712891" xlink:href="#ArialMT-63"/>
      <use x="305.712891" xlink:href="#ArialMT-63"/>
      <use x="355.712891" xlink:href="#ArialMT-75"/>
      <use x="411.328125" xlink:href="#ArialMT-72"/>
      <use x="444.628906" xlink:href="#ArialMT-61"/>
      <use x="500.244141" xlink:href="#ArialMT-63"/>
      <use x="550.244141" xlink:href="#ArialMT-79"/>
     </g>
    </g>
   </g>
   <g id="matplotlib.axis_2">
    <g id="ytick_1">
     <g id="text_6">
      <!-- random baseline -->
      <defs>
       <path d="M 6.59375 0 
L 6.59375 51.859375 
L 14.5 51.859375 
L 14.5 44.484375 
Q 20.21875 53.03125 31 53.03125 
Q 35.6875 53.03125 39.625 51.34375 
Q 43.5625 49.65625 45.515625 46.921875 
Q 47.46875 44.1875 48.25 40.4375 
Q 48.734375 37.984375 48.734375 31.890625 
L 48.734375 0 
L 39.9375 0 
L 39.9375 31.546875 
Q 39.9375 36.921875 38.90625 39.578125 
Q 37.890625 42.234375 35.28125 43.8125 
Q 32.671875 45.40625 29.15625 45.40625 
Q 23.53125 45.40625 19.453125 41.84375 
Q 15.375 38.28125 15.375 28.328125 
L 15.375 0 
z
" id="ArialMT-6e"/>
       <path d="M 40.234375 0 
L 40.234375 6.546875 
Q 35.296875 -1.171875 25.734375 -1.171875 
Q 19.53125 -1.171875 14.328125 2.25 
Q 9.125 5.671875 6.265625 11.796875 
Q 3.421875 17.921875 3.421875 25.875 
Q 3.421875 33.640625 6 39.96875 
Q 8.59375 46.296875 13.765625 49.65625 
Q 18.953125 53.03125 25.34375 53.03125 
Q 30.03125 53.03125 33.6875 51.046875 
Q 37.359375 49.078125 39.65625 45.90625 
L 39.65625 71.578125 
L 48.390625 71.578125 
L 48.390625 0 
z
M 12.453125 25.875 
Q 12.453125 15.921875 16.640625 10.984375 
Q 20.84375 6.0625 26.5625 6.0625 
Q 32.328125 6.0625 36.34375 10.765625 
Q 40.375 15.484375 40.375 25.140625 
Q 40.375 35.796875 36.265625 40.765625 
Q 32.171875 45.75 26.171875 45.75 
Q 20.3125 45.75 16.375 40.96875 
Q 12.453125 36.1875 12.453125 25.875 
z
" id="ArialMT-64"/>
       <path d="M 3.328125 25.921875 
Q 3.328125 40.328125 11.328125 47.265625 
Q 18.015625 53.03125 27.640625 53.03125 
Q 38.328125 53.03125 45.109375 46.015625 
Q 51.90625 39.015625 51.90625 26.65625 
Q 51.90625 16.65625 48.90625 10.90625 
Q 45.90625 5.171875 40.15625 2 
Q 34.421875 -1.171875 27.640625 -1.171875 
Q 16.75 -1.171875 10.03125 5.8125 
Q 3.328125 12.796875 3.328125 25.921875 
z
M 12.359375 25.921875 
Q 12.359375 15.96875 16.703125 11.015625 
Q 21.046875 6.0625 27.640625 6.0625 
Q 34.1875 6.0625 38.53125 11.03125 
Q 42.875 16.015625 42.875 26.21875 
Q 42.875 35.84375 38.5 40.796875 
Q 34.125 45.75 27.640625 45.75 
Q 21.046875 45.75 16.703125 40.8125 
Q 12.359375 35.890625 12.359375 25.921875 
z
" id="ArialMT-6f"/>
       <path d="M 6.59375 0 
L 6.59375 51.859375 
L 14.453125 51.859375 
L 14.453125 44.578125 
Q 16.890625 48.390625 20.9375 50.703125 
Q 25 53.03125 30.171875 53.03125 
Q 35.9375 53.03125 39.625 50.640625 
Q 43.3125 48.25 44.828125 43.953125 
Q 50.984375 53.03125 60.84375 53.03125 
Q 68.5625 53.03125 72.703125 48.75 
Q 76.859375 44.484375 76.859375 35.59375 
L 76.859375 0 
L 68.109375 0 
L 68.109375 32.671875 
Q 68.109375 37.9375 67.25 40.25 
Q 66.40625 42.578125 64.15625 43.984375 
Q 61.921875 45.40625 58.890625 45.40625 
Q 53.421875 45.40625 49.796875 41.765625 
Q 46.1875 38.140625 46.1875 30.125 
L 46.1875 0 
L 37.40625 0 
L 37.40625 33.6875 
Q 37.40625 39.546875 35.25 42.46875 
Q 33.109375 45.40625 28.21875 45.40625 
Q 24.515625 45.40625 21.359375 43.453125 
Q 18.21875 41.5 16.796875 37.734375 
Q 15.375 33.984375 15.375 26.90625 
L 15.375 0 
z
" id="ArialMT-6d"/>
       <path d="M 14.703125 0 
L 6.546875 0 
L 6.546875 71.578125 
L 15.328125 71.578125 
L 15.328125 46.046875 
Q 20.90625 53.03125 29.546875 53.03125 
Q 34.328125 53.03125 38.59375 51.09375 
Q 42.875 49.171875 45.625 45.671875 
Q 48.390625 42.1875 49.953125 37.25 
Q 51.515625 32.328125 51.515625 26.703125 
Q 51.515625 13.375 44.921875 6.09375 
Q 38.328125 -1.171875 29.109375 -1.171875 
Q 19.921875 -1.171875 14.703125 6.5 
z
M 14.59375 26.3125 
Q 14.59375 17 17.140625 12.84375 
Q 21.296875 6.0625 28.375 6.0625 
Q 34.125 6.0625 38.328125 11.0625 
Q 42.53125 16.0625 42.53125 25.984375 
Q 42.53125 36.140625 38.5 40.96875 
Q 34.46875 45.796875 28.765625 45.796875 
Q 23 45.796875 18.796875 40.796875 
Q 14.59375 35.796875 14.59375 26.3125 
z
" id="ArialMT-62"/>
       <path d="M 3.078125 15.484375 
L 11.765625 16.84375 
Q 12.5 11.625 15.84375 8.84375 
Q 19.1875 6.0625 25.203125 6.0625 
Q 31.25 6.0625 34.171875 8.515625 
Q 37.109375 10.984375 37.109375 14.3125 
Q 37.109375 17.28125 34.515625 19 
Q 32.71875 20.171875 25.53125 21.96875 
Q 15.875 24.421875 12.140625 26.203125 
Q 8.40625 27.984375 6.46875 31.125 
Q 4.546875 34.28125 4.546875 38.09375 
Q 4.546875 41.546875 6.125 44.5 
Q 7.71875 47.46875 10.453125 49.421875 
Q 12.5 50.921875 16.03125 51.96875 
Q 19.578125 53.03125 23.640625 53.03125 
Q 29.734375 53.03125 34.34375 51.265625 
Q 38.96875 49.515625 41.15625 46.5 
Q 43.359375 43.5 44.1875 38.484375 
L 35.59375 37.3125 
Q 35.015625 41.3125 32.203125 43.546875 
Q 29.390625 45.796875 24.265625 45.796875 
Q 18.21875 45.796875 15.625 43.796875 
Q 13.03125 41.796875 13.03125 39.109375 
Q 13.03125 37.40625 14.109375 36.03125 
Q 15.1875 34.625 17.484375 33.6875 
Q 18.796875 33.203125 25.25 31.453125 
Q 34.578125 28.953125 38.25 27.359375 
Q 41.9375 25.78125 44.03125 22.75 
Q 46.140625 19.734375 46.140625 15.234375 
Q 46.140625 10.84375 43.578125 6.953125 
Q 41.015625 3.078125 36.171875 0.953125 
Q 31.34375 -1.171875 25.25 -1.171875 
Q 15.140625 -1.171875 9.84375 3.03125 
Q 4.546875 7.234375 3.078125 15.484375 
z
" id="ArialMT-73"/>
       <path d="M 6.390625 0 
L 6.390625 71.578125 
L 15.1875 71.578125 
L 15.1875 0 
z
" id="ArialMT-6c"/>
       <path d="M 6.640625 61.46875 
L 6.640625 71.578125 
L 15.4375 71.578125 
L 15.4375 61.46875 
z
M 6.640625 0 
L 6.640625 51.859375 
L 15.4375 51.859375 
L 15.4375 0 
z
" id="ArialMT-69"/>
      </defs>
      <g style="fill:#262626;" transform="translate(124.925437 42.306691)scale(0.14 -0.14)">
       <use xlink:href="#ArialMT-72"/>
       <use x="33.300781" xlink:href="#ArialMT-61"/>
       <use x="88.916016" xlink:href="#ArialMT-6e"/>
       <use x="144.53125" xlink:href="#ArialMT-64"/>
       <use x="200.146484" xlink:href="#ArialMT-6f"/>
       <use x="255.761719" xlink:href="#ArialMT-6d"/>
       <use x="339.0625" xlink:href="#ArialMT-20"/>
       <use x="366.845703" xlink:href="#ArialMT-62"/>
       <use x="422.460938" xlink:href="#ArialMT-61"/>
       <use x="478.076172" xlink:href="#ArialMT-73"/>
       <use x="528.076172" xlink:href="#ArialMT-65"/>
       <use x="583.691406" xlink:href="#ArialMT-6c"/>
       <use x="605.908203" xlink:href="#ArialMT-69"/>
       <use x="628.125" xlink:href="#ArialMT-6e"/>
       <use x="683.740234" xlink:href="#ArialMT-65"/>
      </g>
     </g>
    </g>
    <g id="ytick_2">
     <g id="text_7">
      <!-- harmony -->
      <defs>
       <path d="M 6.59375 0 
L 6.59375 71.578125 
L 15.375 71.578125 
L 15.375 45.90625 
Q 21.53125 53.03125 30.90625 53.03125 
Q 36.671875 53.03125 40.921875 50.75 
Q 45.171875 48.484375 47 44.484375 
Q 48.828125 40.484375 48.828125 32.859375 
L 48.828125 0 
L 40.046875 0 
L 40.046875 32.859375 
Q 40.046875 39.453125 37.1875 42.453125 
Q 34.328125 45.453125 29.109375 45.453125 
Q 25.203125 45.453125 21.75 43.421875 
Q 18.3125 41.40625 16.84375 37.9375 
Q 15.375 34.46875 15.375 28.375 
L 15.375 0 
z
" id="ArialMT-68"/>
      </defs>
      <g style="fill:#262626;" transform="translate(173.962625 73.795135)scale(0.14 -0.14)">
       <use xlink:href="#ArialMT-68"/>
       <use x="55.615234" xlink:href="#ArialMT-61"/>
       <use x="111.230469" xlink:href="#ArialMT-72"/>
       <use x="144.53125" xlink:href="#ArialMT-6d"/>
       <use x="227.832031" xlink:href="#ArialMT-6f"/>
       <use x="283.447266" xlink:href="#ArialMT-6e"/>
       <use x="339.0625" xlink:href="#ArialMT-79"/>
      </g>
     </g>
    </g>
    <g id="ytick_3">
     <g id="text_8">
      <!-- transp. harmony -->
      <defs>
       <path d="M 6.59375 -19.875 
L 6.59375 51.859375 
L 14.59375 51.859375 
L 14.59375 45.125 
Q 17.4375 49.078125 21 51.046875 
Q 24.5625 53.03125 29.640625 53.03125 
Q 36.28125 53.03125 41.359375 49.609375 
Q 46.4375 46.1875 49.015625 39.953125 
Q 51.609375 33.734375 51.609375 26.3125 
Q 51.609375 18.359375 48.75 11.984375 
Q 45.90625 5.609375 40.453125 2.21875 
Q 35.015625 -1.171875 29 -1.171875 
Q 24.609375 -1.171875 21.109375 0.6875 
Q 17.625 2.546875 15.375 5.375 
L 15.375 -19.875 
z
M 14.546875 25.640625 
Q 14.546875 15.625 18.59375 10.84375 
Q 22.65625 6.0625 28.421875 6.0625 
Q 34.28125 6.0625 38.453125 11.015625 
Q 42.625 15.96875 42.625 26.375 
Q 42.625 36.28125 38.546875 41.203125 
Q 34.46875 46.140625 28.8125 46.140625 
Q 23.1875 46.140625 18.859375 40.890625 
Q 14.546875 35.640625 14.546875 25.640625 
z
" id="ArialMT-70"/>
      </defs>
      <g style="fill:#262626;" transform="translate(127.277 105.28358)scale(0.14 -0.14)">
       <use xlink:href="#ArialMT-74"/>
       <use x="27.783203" xlink:href="#ArialMT-72"/>
       <use x="61.083984" xlink:href="#ArialMT-61"/>
       <use x="116.699219" xlink:href="#ArialMT-6e"/>
       <use x="172.314453" xlink:href="#ArialMT-73"/>
       <use x="222.314453" xlink:href="#ArialMT-70"/>
       <use x="277.929688" xlink:href="#ArialMT-2e"/>
       <use x="305.712891" xlink:href="#ArialMT-20"/>
       <use x="333.496094" xlink:href="#ArialMT-68"/>
       <use x="389.111328" xlink:href="#ArialMT-61"/>
       <use x="444.726562" xlink:href="#ArialMT-72"/>
       <use x="478.027344" xlink:href="#ArialMT-6d"/>
       <use x="561.328125" xlink:href="#ArialMT-6f"/>
       <use x="616.943359" xlink:href="#ArialMT-6e"/>
       <use x="672.558594" xlink:href="#ArialMT-79"/>
      </g>
     </g>
    </g>
    <g id="ytick_4">
     <g id="text_9">
      <!-- simple rhythm -->
      <g style="fill:#262626;" transform="translate(141.301063 136.772024)scale(0.14 -0.14)">
       <use xlink:href="#ArialMT-73"/>
       <use x="50" xlink:href="#ArialMT-69"/>
       <use x="72.216797" xlink:href="#ArialMT-6d"/>
       <use x="155.517578" xlink:href="#ArialMT-70"/>
       <use x="211.132812" xlink:href="#ArialMT-6c"/>
       <use x="233.349609" xlink:href="#ArialMT-65"/>
       <use x="288.964844" xlink:href="#ArialMT-20"/>
       <use x="316.748047" xlink:href="#ArialMT-72"/>
       <use x="350.048828" xlink:href="#ArialMT-68"/>
       <use x="405.664062" xlink:href="#ArialMT-79"/>
       <use x="455.664062" xlink:href="#ArialMT-74"/>
       <use x="483.447266" xlink:href="#ArialMT-68"/>
       <use x="539.0625" xlink:href="#ArialMT-6d"/>
      </g>
     </g>
    </g>
    <g id="ytick_5">
     <g id="text_10">
      <!-- harmony &amp; simple rhythm -->
      <defs>
       <path d="M 47.515625 8.453125 
Q 43.171875 3.609375 38.03125 1.1875 
Q 32.90625 -1.21875 26.953125 -1.21875 
Q 15.96875 -1.21875 9.515625 6.203125 
Q 4.296875 12.25 4.296875 19.734375 
Q 4.296875 26.375 8.5625 31.71875 
Q 12.84375 37.0625 21.34375 41.109375 
Q 16.5 46.6875 14.890625 50.140625 
Q 13.28125 53.609375 13.28125 56.84375 
Q 13.28125 63.28125 18.328125 68.03125 
Q 23.390625 72.796875 31.0625 72.796875 
Q 38.375 72.796875 43.03125 68.296875 
Q 47.703125 63.8125 47.703125 57.515625 
Q 47.703125 47.3125 34.1875 40.09375 
L 47.015625 23.734375 
Q 49.21875 28.03125 50.4375 33.6875 
L 59.578125 31.734375 
Q 57.234375 22.359375 53.21875 16.3125 
Q 58.15625 9.765625 64.40625 5.328125 
L 58.5 -1.65625 
Q 53.171875 1.765625 47.515625 8.453125 
z
M 29.640625 45.75 
Q 35.359375 49.125 37.03125 51.65625 
Q 38.71875 54.203125 38.71875 57.28125 
Q 38.71875 60.9375 36.390625 63.25 
Q 34.078125 65.578125 30.609375 65.578125 
Q 27.046875 65.578125 24.671875 63.28125 
Q 22.3125 60.984375 22.3125 57.671875 
Q 22.3125 56 23.171875 54.171875 
Q 24.03125 52.34375 25.734375 50.296875 
z
M 42 15.375 
L 25.875 35.359375 
Q 18.75 31.109375 16.25 27.46875 
Q 13.765625 23.828125 13.765625 20.265625 
Q 13.765625 15.921875 17.234375 11.234375 
Q 20.703125 6.546875 27.046875 6.546875 
Q 31 6.546875 35.21875 9 
Q 39.453125 11.46875 42 15.375 
z
" id="ArialMT-26"/>
      </defs>
      <g style="fill:#262626;" transform="translate(69.7195 168.345781)scale(0.14 -0.14)">
       <use xlink:href="#ArialMT-68"/>
       <use x="55.615234" xlink:href="#ArialMT-61"/>
       <use x="111.230469" xlink:href="#ArialMT-72"/>
       <use x="144.53125" xlink:href="#ArialMT-6d"/>
       <use x="227.832031" xlink:href="#ArialMT-6f"/>
       <use x="283.447266" xlink:href="#ArialMT-6e"/>
       <use x="339.0625" xlink:href="#ArialMT-79"/>
       <use x="389.0625" xlink:href="#ArialMT-20"/>
       <use x="416.845703" xlink:href="#ArialMT-26"/>
       <use x="483.544922" xlink:href="#ArialMT-20"/>
       <use x="511.328125" xlink:href="#ArialMT-73"/>
       <use x="561.328125" xlink:href="#ArialMT-69"/>
       <use x="583.544922" xlink:href="#ArialMT-6d"/>
       <use x="666.845703" xlink:href="#ArialMT-70"/>
       <use x="722.460938" xlink:href="#ArialMT-6c"/>
       <use x="744.677734" xlink:href="#ArialMT-65"/>
       <use x="800.292969" xlink:href="#ArialMT-20"/>
       <use x="828.076172" xlink:href="#ArialMT-72"/>
       <use x="861.376953" xlink:href="#ArialMT-68"/>
       <use x="916.992188" xlink:href="#ArialMT-79"/>
       <use x="966.992188" xlink:href="#ArialMT-74"/>
       <use x="994.775391" xlink:href="#ArialMT-68"/>
       <use x="1050.390625" xlink:href="#ArialMT-6d"/>
      </g>
     </g>
    </g>
    <g id="ytick_6">
     <g id="text_11">
      <!-- transp. harmony &amp; simple rhythm -->
      <g style="fill:#262626;" transform="translate(23.033875 199.834226)scale(0.14 -0.14)">
       <use xlink:href="#ArialMT-74"/>
       <use x="27.783203" xlink:href="#ArialMT-72"/>
       <use x="61.083984" xlink:href="#ArialMT-61"/>
       <use x="116.699219" xlink:href="#ArialMT-6e"/>
       <use x="172.314453" xlink:href="#ArialMT-73"/>
       <use x="222.314453" xlink:href="#ArialMT-70"/>
       <use x="277.929688" xlink:href="#ArialMT-2e"/>
       <use x="305.712891" xlink:href="#ArialMT-20"/>
       <use x="333.496094" xlink:href="#ArialMT-68"/>
       <use x="389.111328" xlink:href="#ArialMT-61"/>
       <use x="444.726562" xlink:href="#ArialMT-72"/>
       <use x="478.027344" xlink:href="#ArialMT-6d"/>
       <use x="561.328125" xlink:href="#ArialMT-6f"/>
       <use x="616.943359" xlink:href="#ArialMT-6e"/>
       <use x="672.558594" xlink:href="#ArialMT-79"/>
       <use x="722.558594" xlink:href="#ArialMT-20"/>
       <use x="750.341797" xlink:href="#ArialMT-26"/>
       <use x="817.041016" xlink:href="#ArialMT-20"/>
       <use x="844.824219" xlink:href="#ArialMT-73"/>
       <use x="894.824219" xlink:href="#ArialMT-69"/>
       <use x="917.041016" xlink:href="#ArialMT-6d"/>
       <use x="1000.341797" xlink:href="#ArialMT-70"/>
       <use x="1055.957031" xlink:href="#ArialMT-6c"/>
       <use x="1078.173828" xlink:href="#ArialMT-65"/>
       <use x="1133.789062" xlink:href="#ArialMT-20"/>
       <use x="1161.572266" xlink:href="#ArialMT-72"/>
       <use x="1194.873047" xlink:href="#ArialMT-68"/>
       <use x="1250.488281" xlink:href="#ArialMT-79"/>
       <use x="1300.488281" xlink:href="#ArialMT-74"/>
       <use x="1328.271484" xlink:href="#ArialMT-68"/>
       <use x="1383.886719" xlink:href="#ArialMT-6d"/>
      </g>
     </g>
    </g>
    <g id="ytick_7">
     <g id="text_12">
      <!-- rhythm -->
      <g style="fill:#262626;" transform="translate(185.643875 231.237358)scale(0.14 -0.14)">
       <use xlink:href="#ArialMT-72"/>
       <use x="33.300781" xlink:href="#ArialMT-68"/>
       <use x="88.916016" xlink:href="#ArialMT-79"/>
       <use x="138.916016" xlink:href="#ArialMT-74"/>
       <use x="166.699219" xlink:href="#ArialMT-68"/>
       <use x="222.314453" xlink:href="#ArialMT-6d"/>
      </g>
     </g>
    </g>
    <g id="ytick_8">
     <g id="text_13">
      <!-- harmony &amp; rhythm -->
      <g style="fill:#262626;" transform="translate(114.062312 262.811115)scale(0.14 -0.14)">
       <use xlink:href="#ArialMT-68"/>
       <use x="55.615234" xlink:href="#ArialMT-61"/>
       <use x="111.230469" xlink:href="#ArialMT-72"/>
       <use x="144.53125" xlink:href="#ArialMT-6d"/>
       <use x="227.832031" xlink:href="#ArialMT-6f"/>
       <use x="283.447266" xlink:href="#ArialMT-6e"/>
       <use x="339.0625" xlink:href="#ArialMT-79"/>
       <use x="389.0625" xlink:href="#ArialMT-20"/>
       <use x="416.845703" xlink:href="#ArialMT-26"/>
       <use x="483.544922" xlink:href="#ArialMT-20"/>
       <use x="511.328125" xlink:href="#ArialMT-72"/>
       <use x="544.628906" xlink:href="#ArialMT-68"/>
       <use x="600.244141" xlink:href="#ArialMT-79"/>
       <use x="650.244141" xlink:href="#ArialMT-74"/>
       <use x="678.027344" xlink:href="#ArialMT-68"/>
       <use x="733.642578" xlink:href="#ArialMT-6d"/>
      </g>
     </g>
    </g>
    <g id="ytick_9">
     <g id="text_14">
      <!-- transp. harmony &amp; rhythm -->
      <g style="fill:#262626;" transform="translate(67.376687 294.299559)scale(0.14 -0.14)">
       <use xlink:href="#ArialMT-74"/>
       <use x="27.783203" xlink:href="#ArialMT-72"/>
       <use x="61.083984" xlink:href="#ArialMT-61"/>
       <use x="116.699219" xlink:href="#ArialMT-6e"/>
       <use x="172.314453" xlink:href="#ArialMT-73"/>
       <use x="222.314453" xlink:href="#ArialMT-70"/>
       <use x="277.929688" xlink:href="#ArialMT-2e"/>
       <use x="305.712891" xlink:href="#ArialMT-20"/>
       <use x="333.496094" xlink:href="#ArialMT-68"/>
       <use x="389.111328" xlink:href="#ArialMT-61"/>
       <use x="444.726562" xlink:href="#ArialMT-72"/>
       <use x="478.027344" xlink:href="#ArialMT-6d"/>
       <use x="561.328125" xlink:href="#ArialMT-6f"/>
       <use x="616.943359" xlink:href="#ArialMT-6e"/>
       <use x="672.558594" xlink:href="#ArialMT-79"/>
       <use x="722.558594" xlink:href="#ArialMT-20"/>
       <use x="750.341797" xlink:href="#ArialMT-26"/>
       <use x="817.041016" xlink:href="#ArialMT-20"/>
       <use x="844.824219" xlink:href="#ArialMT-72"/>
       <use x="878.125" xlink:href="#ArialMT-68"/>
       <use x="933.740234" xlink:href="#ArialMT-79"/>
       <use x="983.740234" xlink:href="#ArialMT-74"/>
       <use x="1011.523438" xlink:href="#ArialMT-68"/>
       <use x="1067.138672" xlink:href="#ArialMT-6d"/>
      </g>
     </g>
    </g>
   </g>
   <g id="patch_3">
    <path clip-path="url(#p15e63ee40e)" d="M 237.927 24.700844 
L 293.065356 24.700844 
L 293.065356 49.8916 
L 237.927 49.8916 
z
" style="fill:#999999;stroke:#ffffff;stroke-linejoin:miter;"/>
   </g>
   <g id="patch_4">
    <path clip-path="url(#p15e63ee40e)" d="M 237.927 56.189289 
L 348.098786 56.189289 
L 348.098786 81.380044 
L 237.927 81.380044 
z
" style="fill:#999999;stroke:#ffffff;stroke-linejoin:miter;"/>
   </g>
   <g id="patch_5">
    <path clip-path="url(#p15e63ee40e)" d="M 237.927 87.677733 
L 349.528474 87.677733 
L 349.528474 112.868489 
L 237.927 112.868489 
z
" style="fill:#999999;stroke:#ffffff;stroke-linejoin:miter;"/>
   </g>
   <g id="patch_6">
    <path clip-path="url(#p15e63ee40e)" d="M 237.927 119.166178 
L 376.119523 119.166178 
L 376.119523 144.356933 
L 237.927 144.356933 
z
" style="fill:#999999;stroke:#ffffff;stroke-linejoin:miter;"/>
   </g>
   <g id="patch_7">
    <path clip-path="url(#p15e63ee40e)" d="M 237.927 150.654622 
L 385.699226 150.654622 
L 385.699226 175.845378 
L 237.927 175.845378 
z
" style="fill:#999999;stroke:#ffffff;stroke-linejoin:miter;"/>
   </g>
   <g id="patch_8">
    <path clip-path="url(#p15e63ee40e)" d="M 237.927 182.143067 
L 387.992296 182.143067 
L 387.992296 207.333822 
L 237.927 207.333822 
z
" style="fill:#999999;stroke:#ffffff;stroke-linejoin:miter;"/>
   </g>
   <g id="patch_9">
    <path clip-path="url(#p15e63ee40e)" d="M 237.927 213.631511 
L 374.840034 213.631511 
L 374.840034 238.822267 
L 237.927 238.822267 
z
" style="fill:#999999;stroke:#ffffff;stroke-linejoin:miter;"/>
   </g>
   <g id="patch_10">
    <path clip-path="url(#p15e63ee40e)" d="M 237.927 245.119956 
L 387.335843 245.119956 
L 387.335843 270.310711 
L 237.927 270.310711 
z
" style="fill:#999999;stroke:#ffffff;stroke-linejoin:miter;"/>
   </g>
   <g id="patch_11">
    <path clip-path="url(#p15e63ee40e)" d="M 237.927 276.6084 
L 390.688394 276.6084 
L 390.688394 301.799156 
L 237.927 301.799156 
z
" style="fill:#999999;stroke:#ffffff;stroke-linejoin:miter;"/>
   </g>
   <g id="line2d_5">
    <path clip-path="url(#p15e63ee40e)" d="M 286.82233 37.296222 
L 299.243291 37.296222 
" style="fill:none;stroke:#424242;stroke-linecap:round;stroke-width:2.7;"/>
   </g>
   <g id="line2d_6">
    <path clip-path="url(#p15e63ee40e)" d="M 339.107831 68.784667 
L 357.240518 68.784667 
" style="fill:none;stroke:#424242;stroke-linecap:round;stroke-width:2.7;"/>
   </g>
   <g id="line2d_7">
    <path clip-path="url(#p15e63ee40e)" d="M 339.522073 100.273111 
L 359.400308 100.273111 
" style="fill:none;stroke:#424242;stroke-linecap:round;stroke-width:2.7;"/>
   </g>
   <g id="line2d_8">
    <path clip-path="url(#p15e63ee40e)" d="M 363.370136 131.761556 
L 389.263706 131.761556 
" style="fill:none;stroke:#424242;stroke-linecap:round;stroke-width:2.7;"/>
   </g>
   <g id="line2d_9">
    <path clip-path="url(#p15e63ee40e)" d="M 372.581201 163.25 
L 398.43768 163.25 
" style="fill:none;stroke:#424242;stroke-linecap:round;stroke-width:2.7;"/>
   </g>
   <g id="line2d_10">
    <path clip-path="url(#p15e63ee40e)" d="M 377.09492 194.738444 
L 399.650404 194.738444 
" style="fill:none;stroke:#424242;stroke-linecap:round;stroke-width:2.7;"/>
   </g>
   <g id="line2d_11">
    <path clip-path="url(#p15e63ee40e)" d="M 360.63114 226.226889 
L 388.104138 226.226889 
" style="fill:none;stroke:#424242;stroke-linecap:round;stroke-width:2.7;"/>
   </g>
   <g id="line2d_12">
    <path clip-path="url(#p15e63ee40e)" d="M 374.770187 257.715333 
L 400.042678 257.715333 
" style="fill:none;stroke:#424242;stroke-linecap:round;stroke-width:2.7;"/>
   </g>
   <g id="line2d_13">
    <path clip-path="url(#p15e63ee40e)" d="M 378.779404 289.203778 
L 402.232714 289.203778 
" style="fill:none;stroke:#424242;stroke-linecap:round;stroke-width:2.7;"/>
   </g>
   <g id="patch_12">
    <path d="M 237.927 304.948 
L 237.927 21.552 
" style="fill:none;stroke:#cccccc;stroke-linecap:square;stroke-linejoin:miter;stroke-width:1.25;"/>
   </g>
   <g id="patch_13">
    <path d="M 237.927 304.948 
L 410.448 304.948 
" style="fill:none;stroke:#cccccc;stroke-linecap:square;stroke-linejoin:miter;stroke-width:1.25;"/>
   </g>
   <g id="text_15">
    <!-- 0.2285 -->
    <defs>
     <path d="M 27.4375 71.875 
Q 37.84375 71.875 43.703125 64.453125 
Q 50.6875 55.671875 50.6875 35.296875 
Q 50.6875 14.984375 43.65625 6.109375 
Q 37.84375 -1.21875 27.4375 -1.21875 
Q 17 -1.21875 10.59375 6.8125 
Q 4.203125 14.84375 4.203125 35.453125 
Q 4.203125 55.671875 11.234375 64.546875 
Q 17.046875 71.875 27.4375 71.875 
z
M 27.4375 60.5 
Q 24.953125 60.5 23 58.90625 
Q 21.046875 57.328125 19.96875 53.21875 
Q 18.5625 47.90625 18.5625 35.296875 
Q 18.5625 22.703125 19.828125 17.984375 
Q 21.09375 13.28125 23.015625 11.71875 
Q 24.953125 10.15625 27.4375 10.15625 
Q 29.9375 10.15625 31.890625 11.734375 
Q 33.84375 13.328125 34.90625 17.4375 
Q 36.328125 22.703125 36.328125 35.296875 
Q 36.328125 47.90625 35.0625 52.609375 
Q 33.796875 57.328125 31.859375 58.90625 
Q 29.9375 60.5 27.4375 60.5 
z
" id="Arial-BoldMT-30"/>
     <path d="M 7.171875 0 
L 7.171875 13.71875 
L 20.90625 13.71875 
L 20.90625 0 
z
" id="Arial-BoldMT-2e"/>
     <path d="M 50.59375 12.75 
L 50.59375 0 
L 2.484375 0 
Q 3.265625 7.234375 7.171875 13.703125 
Q 11.078125 20.171875 22.609375 30.859375 
Q 31.890625 39.5 33.984375 42.578125 
Q 36.8125 46.828125 36.8125 50.984375 
Q 36.8125 55.5625 34.34375 58.03125 
Q 31.890625 60.5 27.546875 60.5 
Q 23.25 60.5 20.703125 57.90625 
Q 18.171875 55.328125 17.78125 49.3125 
L 4.109375 50.6875 
Q 5.328125 62.015625 11.765625 66.9375 
Q 18.21875 71.875 27.875 71.875 
Q 38.484375 71.875 44.53125 66.15625 
Q 50.59375 60.453125 50.59375 51.953125 
Q 50.59375 47.125 48.859375 42.75 
Q 47.125 38.375 43.359375 33.59375 
Q 40.875 30.421875 34.375 24.453125 
Q 27.875 18.5 26.140625 16.546875 
Q 24.421875 14.59375 23.34375 12.75 
z
" id="Arial-BoldMT-32"/>
     <path d="M 16.015625 38.625 
Q 10.6875 40.875 8.265625 44.796875 
Q 5.859375 48.734375 5.859375 53.421875 
Q 5.859375 61.421875 11.453125 66.640625 
Q 17.046875 71.875 27.34375 71.875 
Q 37.546875 71.875 43.1875 66.640625 
Q 48.828125 61.421875 48.828125 53.421875 
Q 48.828125 48.4375 46.234375 44.546875 
Q 43.65625 40.671875 38.96875 38.625 
Q 44.921875 36.234375 48.015625 31.640625 
Q 51.125 27.046875 51.125 21.046875 
Q 51.125 11.140625 44.796875 4.9375 
Q 38.484375 -1.265625 27.984375 -1.265625 
Q 18.21875 -1.265625 11.71875 3.859375 
Q 4.046875 9.90625 4.046875 20.453125 
Q 4.046875 26.265625 6.921875 31.125 
Q 9.8125 35.984375 16.015625 38.625 
z
M 18.84375 52.4375 
Q 18.84375 48.34375 21.15625 46.046875 
Q 23.484375 43.75 27.34375 43.75 
Q 31.25 43.75 33.59375 46.0625 
Q 35.9375 48.390625 35.9375 52.484375 
Q 35.9375 56.34375 33.609375 58.65625 
Q 31.296875 60.984375 27.484375 60.984375 
Q 23.53125 60.984375 21.1875 58.640625 
Q 18.84375 56.296875 18.84375 52.4375 
z
M 17.578125 21.78125 
Q 17.578125 16.109375 20.484375 12.9375 
Q 23.390625 9.765625 27.734375 9.765625 
Q 31.984375 9.765625 34.765625 12.8125 
Q 37.546875 15.875 37.546875 21.625 
Q 37.546875 26.65625 34.71875 29.703125 
Q 31.890625 32.765625 27.546875 32.765625 
Q 22.515625 32.765625 20.046875 29.296875 
Q 17.578125 25.828125 17.578125 21.78125 
z
" id="Arial-BoldMT-38"/>
     <path d="M 4.4375 18.40625 
L 18.109375 19.828125 
Q 18.703125 15.1875 21.578125 12.46875 
Q 24.46875 9.765625 28.21875 9.765625 
Q 32.515625 9.765625 35.5 13.25 
Q 38.484375 16.75 38.484375 23.78125 
Q 38.484375 30.375 35.515625 33.671875 
Q 32.5625 36.96875 27.828125 36.96875 
Q 21.921875 36.96875 17.234375 31.734375 
L 6.109375 33.34375 
L 13.140625 70.609375 
L 49.421875 70.609375 
L 49.421875 57.765625 
L 23.53125 57.765625 
L 21.390625 45.609375 
Q 25.984375 47.90625 30.765625 47.90625 
Q 39.890625 47.90625 46.234375 41.265625 
Q 52.59375 34.625 52.59375 24.03125 
Q 52.59375 15.1875 47.46875 8.25 
Q 40.484375 -1.21875 28.078125 -1.21875 
Q 18.171875 -1.21875 11.921875 4.09375 
Q 5.671875 9.421875 4.4375 18.40625 
z
" id="Arial-BoldMT-35"/>
    </defs>
    <g style="fill:#ffffff;" transform="translate(242.752995 40.536457)scale(0.125 -0.125)">
     <use xlink:href="#Arial-BoldMT-30"/>
     <use x="55.615234" xlink:href="#Arial-BoldMT-2e"/>
     <use x="83.398438" xlink:href="#Arial-BoldMT-32"/>
     <use x="139.013672" xlink:href="#Arial-BoldMT-32"/>
     <use x="194.628906" xlink:href="#Arial-BoldMT-38"/>
     <use x="250.244141" xlink:href="#Arial-BoldMT-35"/>
    </g>
   </g>
   <g id="text_16">
    <!-- 0.4566 -->
    <defs>
     <path d="M 31.15625 0 
L 31.15625 14.40625 
L 1.859375 14.40625 
L 1.859375 26.421875 
L 32.90625 71.875 
L 44.4375 71.875 
L 44.4375 26.46875 
L 53.328125 26.46875 
L 53.328125 14.40625 
L 44.4375 14.40625 
L 44.4375 0 
z
M 31.15625 26.46875 
L 31.15625 50.921875 
L 14.703125 26.46875 
z
" id="Arial-BoldMT-34"/>
     <path d="M 50.734375 54.046875 
L 37.453125 52.59375 
Q 36.96875 56.6875 34.90625 58.640625 
Q 32.859375 60.59375 29.59375 60.59375 
Q 25.25 60.59375 22.234375 56.6875 
Q 19.234375 52.78125 18.453125 40.4375 
Q 23.578125 46.484375 31.203125 46.484375 
Q 39.796875 46.484375 45.921875 39.9375 
Q 52.046875 33.40625 52.046875 23.046875 
Q 52.046875 12.0625 45.59375 5.421875 
Q 39.15625 -1.21875 29.046875 -1.21875 
Q 18.21875 -1.21875 11.234375 7.203125 
Q 4.25 15.625 4.25 34.8125 
Q 4.25 54.5 11.515625 63.1875 
Q 18.796875 71.875 30.421875 71.875 
Q 38.578125 71.875 43.921875 67.3125 
Q 49.265625 62.75 50.734375 54.046875 
z
M 19.625 24.125 
Q 19.625 17.4375 22.703125 13.796875 
Q 25.78125 10.15625 29.734375 10.15625 
Q 33.546875 10.15625 36.078125 13.125 
Q 38.625 16.109375 38.625 22.90625 
Q 38.625 29.890625 35.890625 33.125 
Q 33.15625 36.375 29.046875 36.375 
Q 25.09375 36.375 22.359375 33.265625 
Q 19.625 30.171875 19.625 24.125 
z
" id="Arial-BoldMT-36"/>
    </defs>
    <g style="fill:#ffffff;" transform="translate(242.752995 72.024901)scale(0.125 -0.125)">
     <use xlink:href="#Arial-BoldMT-30"/>
     <use x="55.615234" xlink:href="#Arial-BoldMT-2e"/>
     <use x="83.398438" xlink:href="#Arial-BoldMT-34"/>
     <use x="139.013672" xlink:href="#Arial-BoldMT-35"/>
     <use x="194.628906" xlink:href="#Arial-BoldMT-36"/>
     <use x="250.244141" xlink:href="#Arial-BoldMT-36"/>
    </g>
   </g>
   <g id="text_17">
    <!-- 0.4625 -->
    <g style="fill:#ffffff;" transform="translate(242.752995 103.513345)scale(0.125 -0.125)">
     <use xlink:href="#Arial-BoldMT-30"/>
     <use x="55.615234" xlink:href="#Arial-BoldMT-2e"/>
     <use x="83.398438" xlink:href="#Arial-BoldMT-34"/>
     <use x="139.013672" xlink:href="#Arial-BoldMT-36"/>
     <use x="194.628906" xlink:href="#Arial-BoldMT-32"/>
     <use x="250.244141" xlink:href="#Arial-BoldMT-35"/>
    </g>
   </g>
   <g id="text_18">
    <!-- 0.5727 -->
    <defs>
     <path d="M 4.25 57.859375 
L 4.25 70.609375 
L 51.171875 70.609375 
L 51.171875 60.640625 
Q 45.359375 54.9375 39.34375 44.234375 
Q 33.34375 33.546875 30.1875 21.5 
Q 27.046875 9.46875 27.09375 0 
L 13.875 0 
Q 14.203125 14.84375 19.984375 30.265625 
Q 25.78125 45.703125 35.453125 57.859375 
z
" id="Arial-BoldMT-37"/>
    </defs>
    <g style="fill:#ffffff;" transform="translate(242.752995 135.00179)scale(0.125 -0.125)">
     <use xlink:href="#Arial-BoldMT-30"/>
     <use x="55.615234" xlink:href="#Arial-BoldMT-2e"/>
     <use x="83.398438" xlink:href="#Arial-BoldMT-35"/>
     <use x="139.013672" xlink:href="#Arial-BoldMT-37"/>
     <use x="194.628906" xlink:href="#Arial-BoldMT-32"/>
     <use x="250.244141" xlink:href="#Arial-BoldMT-37"/>
    </g>
   </g>
   <g id="text_19">
    <!-- 0.6124 -->
    <defs>
     <path d="M 39.359375 0 
L 25.640625 0 
L 25.640625 51.703125 
Q 18.109375 44.671875 7.90625 41.3125 
L 7.90625 53.765625 
Q 13.28125 55.515625 19.578125 60.421875 
Q 25.875 65.328125 28.21875 71.875 
L 39.359375 71.875 
z
" id="Arial-BoldMT-31"/>
    </defs>
    <g style="fill:#ffffff;" transform="translate(242.752995 166.490234)scale(0.125 -0.125)">
     <use xlink:href="#Arial-BoldMT-30"/>
     <use x="55.615234" xlink:href="#Arial-BoldMT-2e"/>
     <use x="83.398438" xlink:href="#Arial-BoldMT-36"/>
     <use x="139.013672" xlink:href="#Arial-BoldMT-31"/>
     <use x="194.628906" xlink:href="#Arial-BoldMT-32"/>
     <use x="250.244141" xlink:href="#Arial-BoldMT-34"/>
    </g>
   </g>
   <g id="text_20">
    <!-- 0.6219 -->
    <defs>
     <path d="M 4.546875 16.546875 
L 17.828125 18.015625 
Q 18.3125 13.96875 20.359375 12.015625 
Q 22.40625 10.0625 25.78125 10.0625 
Q 30.03125 10.0625 33 13.96875 
Q 35.984375 17.875 36.8125 30.171875 
Q 31.640625 24.171875 23.875 24.171875 
Q 15.4375 24.171875 9.296875 30.6875 
Q 3.171875 37.203125 3.171875 47.65625 
Q 3.171875 58.546875 9.640625 65.203125 
Q 16.109375 71.875 26.125 71.875 
Q 37.015625 71.875 44 63.453125 
Q 50.984375 55.03125 50.984375 35.75 
Q 50.984375 16.109375 43.703125 7.421875 
Q 36.421875 -1.265625 24.75 -1.265625 
Q 16.359375 -1.265625 11.171875 3.203125 
Q 6 7.671875 4.546875 16.546875 
z
M 35.59375 46.53125 
Q 35.59375 53.171875 32.546875 56.828125 
Q 29.5 60.5 25.484375 60.5 
Q 21.6875 60.5 19.171875 57.5 
Q 16.65625 54.5 16.65625 47.65625 
Q 16.65625 40.71875 19.390625 37.46875 
Q 22.125 34.234375 26.21875 34.234375 
Q 30.171875 34.234375 32.875 37.359375 
Q 35.59375 40.484375 35.59375 46.53125 
z
" id="Arial-BoldMT-39"/>
    </defs>
    <g style="fill:#ffffff;" transform="translate(242.752995 197.978679)scale(0.125 -0.125)">
     <use xlink:href="#Arial-BoldMT-30"/>
     <use x="55.615234" xlink:href="#Arial-BoldMT-2e"/>
     <use x="83.398438" xlink:href="#Arial-BoldMT-36"/>
     <use x="139.013672" xlink:href="#Arial-BoldMT-32"/>
     <use x="194.628906" xlink:href="#Arial-BoldMT-31"/>
     <use x="250.244141" xlink:href="#Arial-BoldMT-39"/>
    </g>
   </g>
   <g id="text_21">
    <!-- 0.5674 -->
    <g style="fill:#ffffff;" transform="translate(242.752995 229.467123)scale(0.125 -0.125)">
     <use xlink:href="#Arial-BoldMT-30"/>
     <use x="55.615234" xlink:href="#Arial-BoldMT-2e"/>
     <use x="83.398438" xlink:href="#Arial-BoldMT-35"/>
     <use x="139.013672" xlink:href="#Arial-BoldMT-36"/>
     <use x="194.628906" xlink:href="#Arial-BoldMT-37"/>
     <use x="250.244141" xlink:href="#Arial-BoldMT-34"/>
    </g>
   </g>
   <g id="text_22">
    <!-- 0.6192 -->
    <g style="fill:#ffffff;" transform="translate(242.752995 260.955568)scale(0.125 -0.125)">
     <use xlink:href="#Arial-BoldMT-30"/>
     <use x="55.615234" xlink:href="#Arial-BoldMT-2e"/>
     <use x="83.398438" xlink:href="#Arial-BoldMT-36"/>
     <use x="139.013672" xlink:href="#Arial-BoldMT-31"/>
     <use x="194.628906" xlink:href="#Arial-BoldMT-39"/>
     <use x="250.244141" xlink:href="#Arial-BoldMT-32"/>
    </g>
   </g>
   <g id="text_23">
    <!-- 0.6331 -->
    <defs>
     <path d="M 3.765625 19 
L 17.046875 20.609375 
Q 17.671875 15.53125 20.453125 12.84375 
Q 23.25 10.15625 27.203125 10.15625 
Q 31.453125 10.15625 34.34375 13.375 
Q 37.25 16.609375 37.25 22.078125 
Q 37.25 27.25 34.46875 30.265625 
Q 31.6875 33.296875 27.6875 33.296875 
Q 25.046875 33.296875 21.390625 32.28125 
L 22.90625 43.453125 
Q 28.46875 43.3125 31.390625 45.875 
Q 34.328125 48.4375 34.328125 52.6875 
Q 34.328125 56.296875 32.171875 58.4375 
Q 30.03125 60.59375 26.46875 60.59375 
Q 22.953125 60.59375 20.453125 58.15625 
Q 17.96875 55.71875 17.4375 51.03125 
L 4.78125 53.171875 
Q 6.109375 59.671875 8.765625 63.546875 
Q 11.421875 67.4375 16.1875 69.65625 
Q 20.953125 71.875 26.859375 71.875 
Q 36.96875 71.875 43.0625 65.4375 
Q 48.09375 60.15625 48.09375 53.515625 
Q 48.09375 44.09375 37.796875 38.484375 
Q 43.953125 37.15625 47.625 32.5625 
Q 51.3125 27.984375 51.3125 21.484375 
Q 51.3125 12.0625 44.421875 5.421875 
Q 37.546875 -1.21875 27.296875 -1.21875 
Q 17.578125 -1.21875 11.171875 4.375 
Q 4.78125 9.96875 3.765625 19 
z
" id="Arial-BoldMT-33"/>
    </defs>
    <g style="fill:#ffffff;" transform="translate(242.752995 292.444012)scale(0.125 -0.125)">
     <use xlink:href="#Arial-BoldMT-30"/>
     <use x="55.615234" xlink:href="#Arial-BoldMT-2e"/>
     <use x="83.398438" xlink:href="#Arial-BoldMT-36"/>
     <use x="139.013672" xlink:href="#Arial-BoldMT-33"/>
     <use x="194.628906" xlink:href="#Arial-BoldMT-33"/>
     <use x="250.244141" xlink:href="#Arial-BoldMT-31"/>
    </g>
   </g>
  </g>
 </g>
 <defs>
  <clipPath id="p15e63ee40e">
   <rect height="283.396" width="172.521" x="237.927" y="21.552"/>
  </clipPath>
 </defs>
</svg>
