<?xml version="1.0" encoding="utf-8" standalone="no"?>
<!DOCTYPE svg PUBLIC "-//W3C//DTD SVG 1.1//EN"
  "http://www.w3.org/Graphics/SVG/1.1/DTD/svg11.dtd">
<!-- Created with matplotlib (http://matplotlib.org/) -->
<svg height="360pt" version="1.1" viewBox="0 0 360 360" width="360pt" xmlns="http://www.w3.org/2000/svg" xmlns:xlink="http://www.w3.org/1999/xlink">
 <defs>
  <style type="text/css">
*{stroke-linecap:butt;stroke-linejoin:round;}
  </style>
 </defs>
 <g id="figure_1">
  <g id="patch_1">
   <path d="M 0 360 
L 360 360 
L 360 0 
L 0 0 
z
" style="fill:#ffffff;"/>
  </g>
  <g id="axes_1">
   <g id="patch_2">
    <path d="M 136.912148 313.54 
L 339.724503 313.54 
L 339.724503 18.96 
L 136.912148 18.96 
z
" style="fill:#ffffff;"/>
   </g>
   <g id="matplotlib.axis_1">
    <g id="xtick_1">
     <g id="line2d_1">
      <path clip-path="url(#pc75dfd84a3)" d="M 136.912148 313.54 
L 136.912148 18.96 
" style="fill:none;stroke:#cccccc;stroke-linecap:round;"/>
     </g>
     <g id="text_1">
      <!-- 0 -->
      <defs>
       <path d="M 4.15625 35.296875 
Q 4.15625 48 6.765625 55.734375 
Q 9.375 63.484375 14.515625 67.671875 
Q 19.671875 71.875 27.484375 71.875 
Q 33.25 71.875 37.59375 69.546875 
Q 41.9375 67.234375 44.765625 62.859375 
Q 47.609375 58.5 49.21875 52.21875 
Q 50.828125 45.953125 50.828125 35.296875 
Q 50.828125 22.703125 48.234375 14.96875 
Q 45.65625 7.234375 40.5 3 
Q 35.359375 -1.21875 27.484375 -1.21875 
Q 17.140625 -1.21875 11.234375 6.203125 
Q 4.15625 15.140625 4.15625 35.296875 
z
M 13.1875 35.296875 
Q 13.1875 17.671875 17.3125 11.828125 
Q 21.4375 6 27.484375 6 
Q 33.546875 6 37.671875 11.859375 
Q 41.796875 17.71875 41.796875 35.296875 
Q 41.796875 52.984375 37.671875 58.78125 
Q 33.546875 64.59375 27.390625 64.59375 
Q 21.34375 64.59375 17.71875 59.46875 
Q 13.1875 52.9375 13.1875 35.296875 
z
" id="ArialMT-30"/>
      </defs>
      <g style="fill:#262626;" transform="translate(133.853633 330.913594)scale(0.11 -0.11)">
       <use xlink:href="#ArialMT-30"/>
      </g>
     </g>
    </g>
    <g id="xtick_2">
     <g id="line2d_2">
      <path clip-path="url(#pc75dfd84a3)" d="M 178.902284 313.54 
L 178.902284 18.96 
" style="fill:none;stroke:#cccccc;stroke-linecap:round;"/>
     </g>
     <g id="text_2">
      <!-- 25 -->
      <defs>
       <path d="M 50.34375 8.453125 
L 50.34375 0 
L 3.03125 0 
Q 2.9375 3.171875 4.046875 6.109375 
Q 5.859375 10.9375 9.828125 15.625 
Q 13.8125 20.3125 21.34375 26.46875 
Q 33.015625 36.03125 37.109375 41.625 
Q 41.21875 47.21875 41.21875 52.203125 
Q 41.21875 57.421875 37.46875 61 
Q 33.734375 64.59375 27.734375 64.59375 
Q 21.390625 64.59375 17.578125 60.78125 
Q 13.765625 56.984375 13.71875 50.25 
L 4.6875 51.171875 
Q 5.609375 61.28125 11.65625 66.578125 
Q 17.71875 71.875 27.9375 71.875 
Q 38.234375 71.875 44.234375 66.15625 
Q 50.25 60.453125 50.25 52 
Q 50.25 47.703125 48.484375 43.546875 
Q 46.734375 39.40625 42.65625 34.8125 
Q 38.578125 30.21875 29.109375 22.21875 
Q 21.1875 15.578125 18.9375 13.203125 
Q 16.703125 10.84375 15.234375 8.453125 
z
" id="ArialMT-32"/>
       <path d="M 4.15625 18.75 
L 13.375 19.53125 
Q 14.40625 12.796875 18.140625 9.390625 
Q 21.875 6 27.15625 6 
Q 33.5 6 37.890625 10.78125 
Q 42.28125 15.578125 42.28125 23.484375 
Q 42.28125 31 38.0625 35.34375 
Q 33.84375 39.703125 27 39.703125 
Q 22.75 39.703125 19.328125 37.765625 
Q 15.921875 35.84375 13.96875 32.765625 
L 5.71875 33.84375 
L 12.640625 70.609375 
L 48.25 70.609375 
L 48.25 62.203125 
L 19.671875 62.203125 
L 15.828125 42.96875 
Q 22.265625 47.46875 29.34375 47.46875 
Q 38.71875 47.46875 45.15625 40.96875 
Q 51.609375 34.46875 51.609375 24.265625 
Q 51.609375 14.546875 45.953125 7.46875 
Q 39.0625 -1.21875 27.15625 -1.21875 
Q 17.390625 -1.21875 11.203125 4.25 
Q 5.03125 9.71875 4.15625 18.75 
z
" id="ArialMT-35"/>
      </defs>
      <g style="fill:#262626;" transform="translate(172.785253 330.913594)scale(0.11 -0.11)">
       <use xlink:href="#ArialMT-32"/>
       <use x="55.615234" xlink:href="#ArialMT-35"/>
      </g>
     </g>
    </g>
    <g id="xtick_3">
     <g id="line2d_3">
      <path clip-path="url(#pc75dfd84a3)" d="M 220.89242 313.54 
L 220.89242 18.96 
" style="fill:none;stroke:#cccccc;stroke-linecap:round;"/>
     </g>
     <g id="text_3">
      <!-- 50 -->
      <g style="fill:#262626;" transform="translate(214.775388 330.913594)scale(0.11 -0.11)">
       <use xlink:href="#ArialMT-35"/>
       <use x="55.615234" xlink:href="#ArialMT-30"/>
      </g>
     </g>
    </g>
    <g id="xtick_4">
     <g id="line2d_4">
      <path clip-path="url(#pc75dfd84a3)" d="M 262.882555 313.54 
L 262.882555 18.96 
" style="fill:none;stroke:#cccccc;stroke-linecap:round;"/>
     </g>
     <g id="text_4">
      <!-- 75 -->
      <defs>
       <path d="M 4.734375 62.203125 
L 4.734375 70.65625 
L 51.078125 70.65625 
L 51.078125 63.8125 
Q 44.234375 56.546875 37.515625 44.484375 
Q 30.8125 32.421875 27.15625 19.671875 
Q 24.515625 10.6875 23.78125 0 
L 14.75 0 
Q 14.890625 8.453125 18.0625 20.40625 
Q 21.234375 32.375 27.171875 43.484375 
Q 33.109375 54.59375 39.796875 62.203125 
z
" id="ArialMT-37"/>
      </defs>
      <g style="fill:#262626;" transform="translate(256.765524 330.913594)scale(0.11 -0.11)">
       <use xlink:href="#ArialMT-37"/>
       <use x="55.615234" xlink:href="#ArialMT-35"/>
      </g>
     </g>
    </g>
    <g id="xtick_5">
     <g id="line2d_5">
      <path clip-path="url(#pc75dfd84a3)" d="M 304.872691 313.54 
L 304.872691 18.96 
" style="fill:none;stroke:#cccccc;stroke-linecap:round;"/>
     </g>
     <g id="text_5">
      <!-- 100 -->
      <defs>
       <path d="M 37.25 0 
L 28.46875 0 
L 28.46875 56 
Q 25.296875 52.984375 20.140625 49.953125 
Q 14.984375 46.921875 10.890625 45.40625 
L 10.890625 53.90625 
Q 18.265625 57.375 23.78125 62.296875 
Q 29.296875 67.234375 31.59375 71.875 
L 37.25 71.875 
z
" id="ArialMT-31"/>
      </defs>
      <g style="fill:#262626;" transform="translate(295.697144 330.913594)scale(0.11 -0.11)">
       <use xlink:href="#ArialMT-31"/>
       <use x="55.615234" xlink:href="#ArialMT-30"/>
       <use x="111.230469" xlink:href="#ArialMT-30"/>
      </g>
     </g>
    </g>
    <g id="text_6">
     <!-- count -->
     <defs>
      <path d="M 40.4375 19 
L 49.078125 17.875 
Q 47.65625 8.9375 41.8125 3.875 
Q 35.984375 -1.171875 27.484375 -1.171875 
Q 16.84375 -1.171875 10.375 5.78125 
Q 3.90625 12.75 3.90625 25.734375 
Q 3.90625 34.125 6.6875 40.421875 
Q 9.46875 46.734375 15.15625 49.875 
Q 20.84375 53.03125 27.546875 53.03125 
Q 35.984375 53.03125 41.359375 48.75 
Q 46.734375 44.484375 48.25 36.625 
L 39.703125 35.296875 
Q 38.484375 40.53125 35.375 43.15625 
Q 32.28125 45.796875 27.875 45.796875 
Q 21.234375 45.796875 17.078125 41.03125 
Q 12.9375 36.28125 12.9375 25.984375 
Q 12.9375 15.53125 16.9375 10.796875 
Q 20.953125 6.0625 27.390625 6.0625 
Q 32.5625 6.0625 36.03125 9.234375 
Q 39.5 12.40625 40.4375 19 
z
" id="ArialMT-63"/>
      <path d="M 3.328125 25.921875 
Q 3.328125 40.328125 11.328125 47.265625 
Q 18.015625 53.03125 27.640625 53.03125 
Q 38.328125 53.03125 45.109375 46.015625 
Q 51.90625 39.015625 51.90625 26.65625 
Q 51.90625 16.65625 48.90625 10.90625 
Q 45.90625 5.171875 40.15625 2 
Q 34.421875 -1.171875 27.640625 -1.171875 
Q 16.75 -1.171875 10.03125 5.8125 
Q 3.328125 12.796875 3.328125 25.921875 
z
M 12.359375 25.921875 
Q 12.359375 15.96875 16.703125 11.015625 
Q 21.046875 6.0625 27.640625 6.0625 
Q 34.1875 6.0625 38.53125 11.03125 
Q 42.875 16.015625 42.875 26.21875 
Q 42.875 35.84375 38.5 40.796875 
Q 34.125 45.75 27.640625 45.75 
Q 21.046875 45.75 16.703125 40.8125 
Q 12.359375 35.890625 12.359375 25.921875 
z
" id="ArialMT-6f"/>
      <path d="M 40.578125 0 
L 40.578125 7.625 
Q 34.515625 -1.171875 24.125 -1.171875 
Q 19.53125 -1.171875 15.546875 0.578125 
Q 11.578125 2.34375 9.640625 5 
Q 7.71875 7.671875 6.9375 11.53125 
Q 6.390625 14.109375 6.390625 19.734375 
L 6.390625 51.859375 
L 15.1875 51.859375 
L 15.1875 23.09375 
Q 15.1875 16.21875 15.71875 13.8125 
Q 16.546875 10.359375 19.234375 8.375 
Q 21.921875 6.390625 25.875 6.390625 
Q 29.828125 6.390625 33.296875 8.421875 
Q 36.765625 10.453125 38.203125 13.9375 
Q 39.65625 17.4375 39.65625 24.078125 
L 39.65625 51.859375 
L 48.4375 51.859375 
L 48.4375 0 
z
" id="ArialMT-75"/>
      <path d="M 6.59375 0 
L 6.59375 51.859375 
L 14.5 51.859375 
L 14.5 44.484375 
Q 20.21875 53.03125 31 53.03125 
Q 35.6875 53.03125 39.625 51.34375 
Q 43.5625 49.65625 45.515625 46.921875 
Q 47.46875 44.1875 48.25 40.4375 
Q 48.734375 37.984375 48.734375 31.890625 
L 48.734375 0 
L 39.9375 0 
L 39.9375 31.546875 
Q 39.9375 36.921875 38.90625 39.578125 
Q 37.890625 42.234375 35.28125 43.8125 
Q 32.671875 45.40625 29.15625 45.40625 
Q 23.53125 45.40625 19.453125 41.84375 
Q 15.375 38.28125 15.375 28.328125 
L 15.375 0 
z
" id="ArialMT-6e"/>
      <path d="M 25.78125 7.859375 
L 27.046875 0.09375 
Q 23.34375 -0.6875 20.40625 -0.6875 
Q 15.625 -0.6875 12.984375 0.828125 
Q 10.359375 2.34375 9.28125 4.8125 
Q 8.203125 7.28125 8.203125 15.1875 
L 8.203125 45.015625 
L 1.765625 45.015625 
L 1.765625 51.859375 
L 8.203125 51.859375 
L 8.203125 64.703125 
L 16.9375 69.96875 
L 16.9375 51.859375 
L 25.78125 51.859375 
L 25.78125 45.015625 
L 16.9375 45.015625 
L 16.9375 14.703125 
Q 16.9375 10.9375 17.40625 9.859375 
Q 17.875 8.796875 18.921875 8.15625 
Q 19.96875 7.515625 21.921875 7.515625 
Q 23.390625 7.515625 25.78125 7.859375 
z
" id="ArialMT-74"/>
     </defs>
     <g style="fill:#262626;" transform="translate(223.641763 345.689219)scale(0.12 -0.12)">
      <use xlink:href="#ArialMT-63"/>
      <use x="50" xlink:href="#ArialMT-6f"/>
      <use x="105.615234" xlink:href="#ArialMT-75"/>
      <use x="161.230469" xlink:href="#ArialMT-6e"/>
      <use x="216.845703" xlink:href="#ArialMT-74"/>
     </g>
    </g>
   </g>
   <g id="matplotlib.axis_2">
    <g id="ytick_1">
     <g id="text_7">
      <!-- Cm7$\longrightarrow$Cm7   Cm7 -->
      <defs>
       <path d="M 58.796875 25.09375 
L 68.265625 22.703125 
Q 65.28125 11.03125 57.546875 4.90625 
Q 49.8125 -1.21875 38.625 -1.21875 
Q 27.046875 -1.21875 19.796875 3.484375 
Q 12.546875 8.203125 8.765625 17.140625 
Q 4.984375 26.078125 4.984375 36.328125 
Q 4.984375 47.515625 9.25 55.828125 
Q 13.53125 64.15625 21.40625 68.46875 
Q 29.296875 72.796875 38.765625 72.796875 
Q 49.515625 72.796875 56.828125 67.328125 
Q 64.15625 61.859375 67.046875 51.953125 
L 57.71875 49.75 
Q 55.21875 57.5625 50.484375 61.125 
Q 45.75 64.703125 38.578125 64.703125 
Q 30.328125 64.703125 24.78125 60.734375 
Q 19.234375 56.78125 16.984375 50.109375 
Q 14.75 43.453125 14.75 36.375 
Q 14.75 27.25 17.40625 20.4375 
Q 20.0625 13.625 25.671875 10.25 
Q 31.296875 6.890625 37.84375 6.890625 
Q 45.796875 6.890625 51.3125 11.46875 
Q 56.84375 16.0625 58.796875 25.09375 
z
" id="ArialMT-43"/>
       <path d="M 6.59375 0 
L 6.59375 51.859375 
L 14.453125 51.859375 
L 14.453125 44.578125 
Q 16.890625 48.390625 20.9375 50.703125 
Q 25 53.03125 30.171875 53.03125 
Q 35.9375 53.03125 39.625 50.640625 
Q 43.3125 48.25 44.828125 43.953125 
Q 50.984375 53.03125 60.84375 53.03125 
Q 68.5625 53.03125 72.703125 48.75 
Q 76.859375 44.484375 76.859375 35.59375 
L 76.859375 0 
L 68.109375 0 
L 68.109375 32.671875 
Q 68.109375 37.9375 67.25 40.25 
Q 66.40625 42.578125 64.15625 43.984375 
Q 61.921875 45.40625 58.890625 45.40625 
Q 53.421875 45.40625 49.796875 41.765625 
Q 46.1875 38.140625 46.1875 30.125 
L 46.1875 0 
L 37.40625 0 
L 37.40625 33.6875 
Q 37.40625 39.546875 35.25 42.46875 
Q 33.109375 45.40625 28.21875 45.40625 
Q 24.515625 45.40625 21.359375 43.453125 
Q 18.21875 41.5 16.796875 37.734375 
Q 15.375 33.984375 15.375 26.90625 
L 15.375 0 
z
" id="ArialMT-6d"/>
       <path d="M 138.484375 33.546875 
L 138.484375 29.15625 
L 119.28125 9.96875 
L 113.421875 15.828125 
L 124.8125 27.203125 
L 5.71875 27.203125 
L 5.71875 35.5 
L 124.8125 35.5 
L 113.421875 46.875 
L 119.28125 52.734375 
z
" id="DejaVuSans-27f6"/>
       <path id="ArialMT-20"/>
      </defs>
      <g style="fill:#262626;" transform="translate(28.412148 30.261297)scale(0.11 -0.11)">
       <use transform="translate(0 0.203125)" xlink:href="#ArialMT-43"/>
       <use transform="translate(72.216797 0.203125)" xlink:href="#ArialMT-6d"/>
       <use transform="translate(155.517578 0.203125)" xlink:href="#ArialMT-37"/>
       <use transform="translate(230.615234 0.203125)" xlink:href="#DejaVuSans-27f6"/>
       <use transform="translate(393.457031 0.203125)" xlink:href="#ArialMT-43"/>
       <use transform="translate(465.673828 0.203125)" xlink:href="#ArialMT-6d"/>
       <use transform="translate(548.974609 0.203125)" xlink:href="#ArialMT-37"/>
       <use transform="translate(604.589844 0.203125)" xlink:href="#ArialMT-20"/>
       <use transform="translate(632.373047 0.203125)" xlink:href="#ArialMT-20"/>
       <use transform="translate(660.15625 0.203125)" xlink:href="#ArialMT-20"/>
       <use transform="translate(687.939453 0.203125)" xlink:href="#ArialMT-43"/>
       <use transform="translate(760.15625 0.203125)" xlink:href="#ArialMT-6d"/>
       <use transform="translate(843.457031 0.203125)" xlink:href="#ArialMT-37"/>
      </g>
     </g>
    </g>
    <g id="ytick_2">
     <g id="text_8">
      <!-- G7$\longrightarrow$Dm7   G7 -->
      <defs>
       <path d="M 41.21875 28.078125 
L 41.21875 36.46875 
L 71.53125 36.53125 
L 71.53125 9.96875 
Q 64.546875 4.390625 57.125 1.578125 
Q 49.703125 -1.21875 41.890625 -1.21875 
Q 31.34375 -1.21875 22.71875 3.296875 
Q 14.109375 7.8125 9.71875 16.359375 
Q 5.328125 24.90625 5.328125 35.453125 
Q 5.328125 45.90625 9.6875 54.953125 
Q 14.0625 64.015625 22.265625 68.40625 
Q 30.46875 72.796875 41.15625 72.796875 
Q 48.921875 72.796875 55.1875 70.28125 
Q 61.46875 67.78125 65.03125 63.28125 
Q 68.609375 58.796875 70.453125 51.5625 
L 61.921875 49.21875 
Q 60.296875 54.6875 57.90625 57.8125 
Q 55.515625 60.9375 51.0625 62.8125 
Q 46.625 64.703125 41.21875 64.703125 
Q 34.71875 64.703125 29.984375 62.71875 
Q 25.25 60.75 22.34375 57.515625 
Q 19.4375 54.296875 17.828125 50.4375 
Q 15.09375 43.796875 15.09375 36.03125 
Q 15.09375 26.46875 18.390625 20.015625 
Q 21.6875 13.578125 27.984375 10.453125 
Q 34.28125 7.328125 41.359375 7.328125 
Q 47.515625 7.328125 53.375 9.6875 
Q 59.234375 12.0625 62.25 14.75 
L 62.25 28.078125 
z
" id="ArialMT-47"/>
       <path d="M 7.71875 0 
L 7.71875 71.578125 
L 32.375 71.578125 
Q 40.71875 71.578125 45.125 70.5625 
Q 51.265625 69.140625 55.609375 65.4375 
Q 61.28125 60.640625 64.078125 53.1875 
Q 66.890625 45.75 66.890625 36.1875 
Q 66.890625 28.03125 64.984375 21.734375 
Q 63.09375 15.4375 60.109375 11.296875 
Q 57.125 7.171875 53.578125 4.796875 
Q 50.046875 2.4375 45.046875 1.21875 
Q 40.046875 0 33.546875 0 
z
M 17.1875 8.453125 
L 32.46875 8.453125 
Q 39.546875 8.453125 43.578125 9.765625 
Q 47.609375 11.078125 50 13.484375 
Q 53.375 16.84375 55.25 22.53125 
Q 57.125 28.21875 57.125 36.328125 
Q 57.125 47.5625 53.4375 53.59375 
Q 49.75 59.625 44.484375 61.671875 
Q 40.671875 63.140625 32.234375 63.140625 
L 17.1875 63.140625 
z
" id="ArialMT-44"/>
      </defs>
      <g style="fill:#262626;" transform="translate(45.572148 44.990297)scale(0.11 -0.11)">
       <use transform="translate(0 0.203125)" xlink:href="#ArialMT-47"/>
       <use transform="translate(77.783203 0.203125)" xlink:href="#ArialMT-37"/>
       <use transform="translate(152.880859 0.203125)" xlink:href="#DejaVuSans-27f6"/>
       <use transform="translate(315.722656 0.203125)" xlink:href="#ArialMT-44"/>
       <use transform="translate(387.939453 0.203125)" xlink:href="#ArialMT-6d"/>
       <use transform="translate(471.240234 0.203125)" xlink:href="#ArialMT-37"/>
       <use transform="translate(526.855469 0.203125)" xlink:href="#ArialMT-20"/>
       <use transform="translate(554.638672 0.203125)" xlink:href="#ArialMT-20"/>
       <use transform="translate(582.421875 0.203125)" xlink:href="#ArialMT-20"/>
       <use transform="translate(610.205078 0.203125)" xlink:href="#ArialMT-47"/>
       <use transform="translate(687.988281 0.203125)" xlink:href="#ArialMT-37"/>
      </g>
     </g>
    </g>
    <g id="ytick_3">
     <g id="text_9">
      <!-- C^7$\longrightarrow$C^7   C^7 -->
      <defs>
       <path d="M 11.671875 33.6875 
L 2.640625 33.6875 
L 19.875 72.796875 
L 26.953125 72.796875 
L 44.28125 33.6875 
L 35.453125 33.6875 
L 23.390625 62.84375 
z
" id="ArialMT-5e"/>
      </defs>
      <g style="fill:#262626;" transform="translate(40.512148 59.719297)scale(0.11 -0.11)">
       <use transform="translate(0 0.203125)" xlink:href="#ArialMT-43"/>
       <use transform="translate(72.216797 0.203125)" xlink:href="#ArialMT-5e"/>
       <use transform="translate(119.140625 0.203125)" xlink:href="#ArialMT-37"/>
       <use transform="translate(194.238281 0.203125)" xlink:href="#DejaVuSans-27f6"/>
       <use transform="translate(357.080078 0.203125)" xlink:href="#ArialMT-43"/>
       <use transform="translate(429.296875 0.203125)" xlink:href="#ArialMT-5e"/>
       <use transform="translate(476.220703 0.203125)" xlink:href="#ArialMT-37"/>
       <use transform="translate(531.835938 0.203125)" xlink:href="#ArialMT-20"/>
       <use transform="translate(559.619141 0.203125)" xlink:href="#ArialMT-20"/>
       <use transform="translate(587.402344 0.203125)" xlink:href="#ArialMT-20"/>
       <use transform="translate(615.185547 0.203125)" xlink:href="#ArialMT-43"/>
       <use transform="translate(687.402344 0.203125)" xlink:href="#ArialMT-5e"/>
       <use transform="translate(734.326172 0.203125)" xlink:href="#ArialMT-37"/>
      </g>
     </g>
    </g>
    <g id="ytick_4">
     <g id="text_10">
      <!-- C6$\longrightarrow$C6   C6 -->
      <defs>
       <path d="M 49.75 54.046875 
L 41.015625 53.375 
Q 39.84375 58.546875 37.703125 60.890625 
Q 34.125 64.65625 28.90625 64.65625 
Q 24.703125 64.65625 21.53125 62.3125 
Q 17.390625 59.28125 14.984375 53.46875 
Q 12.59375 47.65625 12.5 36.921875 
Q 15.671875 41.75 20.265625 44.09375 
Q 24.859375 46.4375 29.890625 46.4375 
Q 38.671875 46.4375 44.84375 39.96875 
Q 51.03125 33.5 51.03125 23.25 
Q 51.03125 16.5 48.125 10.71875 
Q 45.21875 4.9375 40.140625 1.859375 
Q 35.0625 -1.21875 28.609375 -1.21875 
Q 17.625 -1.21875 10.6875 6.859375 
Q 3.765625 14.9375 3.765625 33.5 
Q 3.765625 54.25 11.421875 63.671875 
Q 18.109375 71.875 29.4375 71.875 
Q 37.890625 71.875 43.28125 67.140625 
Q 48.6875 62.40625 49.75 54.046875 
z
M 13.875 23.1875 
Q 13.875 18.65625 15.796875 14.5 
Q 17.71875 10.359375 21.1875 8.171875 
Q 24.65625 6 28.46875 6 
Q 34.03125 6 38.03125 10.484375 
Q 42.046875 14.984375 42.046875 22.703125 
Q 42.046875 30.125 38.078125 34.390625 
Q 34.125 38.671875 28.125 38.671875 
Q 22.171875 38.671875 18.015625 34.390625 
Q 13.875 30.125 13.875 23.1875 
z
" id="ArialMT-36"/>
      </defs>
      <g style="fill:#262626;" transform="translate(55.912148 74.448297)scale(0.11 -0.11)">
       <use transform="translate(0 0.203125)" xlink:href="#ArialMT-43"/>
       <use transform="translate(72.216797 0.203125)" xlink:href="#ArialMT-36"/>
       <use transform="translate(147.314453 0.203125)" xlink:href="#DejaVuSans-27f6"/>
       <use transform="translate(310.15625 0.203125)" xlink:href="#ArialMT-43"/>
       <use transform="translate(382.373047 0.203125)" xlink:href="#ArialMT-36"/>
       <use transform="translate(437.988281 0.203125)" xlink:href="#ArialMT-20"/>
       <use transform="translate(465.771484 0.203125)" xlink:href="#ArialMT-20"/>
       <use transform="translate(493.554688 0.203125)" xlink:href="#ArialMT-20"/>
       <use transform="translate(521.337891 0.203125)" xlink:href="#ArialMT-43"/>
       <use transform="translate(593.554688 0.203125)" xlink:href="#ArialMT-36"/>
      </g>
     </g>
    </g>
    <g id="ytick_5">
     <g id="text_11">
      <!-- C^7$\longrightarrow$G7   C^7 -->
      <g style="fill:#262626;" transform="translate(45.022148 89.177297)scale(0.11 -0.11)">
       <use transform="translate(0 0.203125)" xlink:href="#ArialMT-43"/>
       <use transform="translate(72.216797 0.203125)" xlink:href="#ArialMT-5e"/>
       <use transform="translate(119.140625 0.203125)" xlink:href="#ArialMT-37"/>
       <use transform="translate(194.238281 0.203125)" xlink:href="#DejaVuSans-27f6"/>
       <use transform="translate(357.080078 0.203125)" xlink:href="#ArialMT-47"/>
       <use transform="translate(434.863281 0.203125)" xlink:href="#ArialMT-37"/>
       <use transform="translate(490.478516 0.203125)" xlink:href="#ArialMT-20"/>
       <use transform="translate(518.261719 0.203125)" xlink:href="#ArialMT-20"/>
       <use transform="translate(546.044922 0.203125)" xlink:href="#ArialMT-20"/>
       <use transform="translate(573.828125 0.203125)" xlink:href="#ArialMT-43"/>
       <use transform="translate(646.044922 0.203125)" xlink:href="#ArialMT-5e"/>
       <use transform="translate(692.96875 0.203125)" xlink:href="#ArialMT-37"/>
      </g>
     </g>
    </g>
    <g id="ytick_6">
     <g id="text_12">
      <!-- G7$\longrightarrow$D$\emptyset$7   G7 -->
      <defs>
       <path d="M 62.890625 65.375 
L 67.234375 70.75 
L 72.40625 70.75 
L 66.15625 63.09375 
Q 71.296875 59.03125 74.65625 53.078125 
Q 79.546875 44.390625 79.546875 35.015625 
Q 79.546875 25.640625 74.65625 16.96875 
Q 69.78125 8.296875 61.1875 3.65625 
Q 52.59375 -0.984375 43.5625 -0.984375 
Q 34.421875 -0.984375 25.828125 3.65625 
Q 23.09375 5.125 20.75 7.03125 
L 14.59375 -0.59375 
L 9.46875 -0.59375 
L 17.78125 9.671875 
Q 14.703125 12.890625 12.40625 17 
Q 7.5625 25.640625 7.5625 35.015625 
Q 7.5625 44.390625 12.390625 53.046875 
Q 17.234375 61.71875 25.828125 66.359375 
Q 34.421875 71 43.5625 71 
Q 52.59375 71 61.1875 66.359375 
Q 62.0625 65.875 62.890625 65.375 
z
M 21.875 14.75 
L 58.796875 60.296875 
L 58.109375 60.6875 
Q 51.03125 64.5 43.5625 64.5 
Q 36.03125 64.5 28.921875 60.671875 
Q 21.828125 56.84375 17.828125 49.65625 
Q 13.875 42.578125 13.8125 35.015625 
Q 13.875 27.4375 17.828125 20.359375 
Q 19.578125 17.234375 21.875 14.75 
z
M 62.109375 58.0625 
L 24.859375 12.0625 
Q 26.765625 10.546875 28.953125 9.375 
Q 36.03125 5.515625 43.5625 5.515625 
Q 51.03125 5.515625 58.109375 9.34375 
Q 65.1875 13.1875 69.234375 20.359375 
Q 73.25 27.4375 73.296875 35.015625 
Q 73.25 42.578125 69.234375 49.65625 
Q 66.40625 54.6875 62.109375 58.0625 
z
" id="DejaVuSans-2205"/>
      </defs>
      <g style="fill:#262626;" transform="translate(45.132148 103.906297)scale(0.11 -0.11)">
       <use transform="translate(0 0.203125)" xlink:href="#ArialMT-47"/>
       <use transform="translate(77.783203 0.203125)" xlink:href="#ArialMT-37"/>
       <use transform="translate(152.880859 0.203125)" xlink:href="#DejaVuSans-27f6"/>
       <use transform="translate(315.722656 0.203125)" xlink:href="#ArialMT-44"/>
       <use transform="translate(387.939453 0.203125)" xlink:href="#DejaVuSans-2205"/>
       <use transform="translate(475.048828 0.203125)" xlink:href="#ArialMT-37"/>
       <use transform="translate(530.664062 0.203125)" xlink:href="#ArialMT-20"/>
       <use transform="translate(558.447266 0.203125)" xlink:href="#ArialMT-20"/>
       <use transform="translate(586.230469 0.203125)" xlink:href="#ArialMT-20"/>
       <use transform="translate(614.013672 0.203125)" xlink:href="#ArialMT-47"/>
       <use transform="translate(691.796875 0.203125)" xlink:href="#ArialMT-37"/>
      </g>
     </g>
    </g>
    <g id="ytick_7">
     <g id="text_13">
      <!-- Cm7$\longrightarrow$G7   Cm7 -->
      <g style="fill:#262626;" transform="translate(36.992148 118.635297)scale(0.11 -0.11)">
       <use transform="translate(0 0.203125)" xlink:href="#ArialMT-43"/>
       <use transform="translate(72.216797 0.203125)" xlink:href="#ArialMT-6d"/>
       <use transform="translate(155.517578 0.203125)" xlink:href="#ArialMT-37"/>
       <use transform="translate(230.615234 0.203125)" xlink:href="#DejaVuSans-27f6"/>
       <use transform="translate(393.457031 0.203125)" xlink:href="#ArialMT-47"/>
       <use transform="translate(471.240234 0.203125)" xlink:href="#ArialMT-37"/>
       <use transform="translate(526.855469 0.203125)" xlink:href="#ArialMT-20"/>
       <use transform="translate(554.638672 0.203125)" xlink:href="#ArialMT-20"/>
       <use transform="translate(582.421875 0.203125)" xlink:href="#ArialMT-20"/>
       <use transform="translate(610.205078 0.203125)" xlink:href="#ArialMT-43"/>
       <use transform="translate(682.421875 0.203125)" xlink:href="#ArialMT-6d"/>
       <use transform="translate(765.722656 0.203125)" xlink:href="#ArialMT-37"/>
      </g>
     </g>
    </g>
    <g id="ytick_8">
     <g id="text_14">
      <!-- Cm$\longrightarrow$Cm   Cm -->
      <g style="fill:#262626;" transform="translate(46.782148 133.364297)scale(0.11 -0.11)">
       <use transform="translate(0 0.203125)" xlink:href="#ArialMT-43"/>
       <use transform="translate(72.216797 0.203125)" xlink:href="#ArialMT-6d"/>
       <use transform="translate(175 0.203125)" xlink:href="#DejaVuSans-27f6"/>
       <use transform="translate(337.841797 0.203125)" xlink:href="#ArialMT-43"/>
       <use transform="translate(410.058594 0.203125)" xlink:href="#ArialMT-6d"/>
       <use transform="translate(493.359375 0.203125)" xlink:href="#ArialMT-20"/>
       <use transform="translate(521.142578 0.203125)" xlink:href="#ArialMT-20"/>
       <use transform="translate(548.925781 0.203125)" xlink:href="#ArialMT-20"/>
       <use transform="translate(576.708984 0.203125)" xlink:href="#ArialMT-43"/>
       <use transform="translate(648.925781 0.203125)" xlink:href="#ArialMT-6d"/>
      </g>
     </g>
    </g>
    <g id="ytick_9">
     <g id="text_15">
      <!-- G7$\longrightarrow$D7   G7 -->
      <g style="fill:#262626;" transform="translate(54.702148 148.093297)scale(0.11 -0.11)">
       <use transform="translate(0 0.203125)" xlink:href="#ArialMT-47"/>
       <use transform="translate(77.783203 0.203125)" xlink:href="#ArialMT-37"/>
       <use transform="translate(152.880859 0.203125)" xlink:href="#DejaVuSans-27f6"/>
       <use transform="translate(315.722656 0.203125)" xlink:href="#ArialMT-44"/>
       <use transform="translate(387.939453 0.203125)" xlink:href="#ArialMT-37"/>
       <use transform="translate(443.554688 0.203125)" xlink:href="#ArialMT-20"/>
       <use transform="translate(471.337891 0.203125)" xlink:href="#ArialMT-20"/>
       <use transform="translate(499.121094 0.203125)" xlink:href="#ArialMT-20"/>
       <use transform="translate(526.904297 0.203125)" xlink:href="#ArialMT-47"/>
       <use transform="translate(604.6875 0.203125)" xlink:href="#ArialMT-37"/>
      </g>
     </g>
    </g>
    <g id="ytick_10">
     <g id="text_16">
      <!-- C6$\longrightarrow$G7   C6 -->
      <g style="fill:#262626;" transform="translate(55.362148 162.822297)scale(0.11 -0.11)">
       <use transform="translate(0 0.203125)" xlink:href="#ArialMT-43"/>
       <use transform="translate(72.216797 0.203125)" xlink:href="#ArialMT-36"/>
       <use transform="translate(147.314453 0.203125)" xlink:href="#DejaVuSans-27f6"/>
       <use transform="translate(310.15625 0.203125)" xlink:href="#ArialMT-47"/>
       <use transform="translate(387.939453 0.203125)" xlink:href="#ArialMT-37"/>
       <use transform="translate(443.554688 0.203125)" xlink:href="#ArialMT-20"/>
       <use transform="translate(471.337891 0.203125)" xlink:href="#ArialMT-20"/>
       <use transform="translate(499.121094 0.203125)" xlink:href="#ArialMT-20"/>
       <use transform="translate(526.904297 0.203125)" xlink:href="#ArialMT-43"/>
       <use transform="translate(599.121094 0.203125)" xlink:href="#ArialMT-36"/>
      </g>
     </g>
    </g>
    <g id="ytick_11">
     <g id="text_17">
      <!-- G7$\longrightarrow$G7   G7 -->
      <g style="fill:#262626;" transform="translate(54.152148 177.551297)scale(0.11 -0.11)">
       <use transform="translate(0 0.203125)" xlink:href="#ArialMT-47"/>
       <use transform="translate(77.783203 0.203125)" xlink:href="#ArialMT-37"/>
       <use transform="translate(152.880859 0.203125)" xlink:href="#DejaVuSans-27f6"/>
       <use transform="translate(315.722656 0.203125)" xlink:href="#ArialMT-47"/>
       <use transform="translate(393.505859 0.203125)" xlink:href="#ArialMT-37"/>
       <use transform="translate(449.121094 0.203125)" xlink:href="#ArialMT-20"/>
       <use transform="translate(476.904297 0.203125)" xlink:href="#ArialMT-20"/>
       <use transform="translate(504.6875 0.203125)" xlink:href="#ArialMT-20"/>
       <use transform="translate(532.470703 0.203125)" xlink:href="#ArialMT-47"/>
       <use transform="translate(610.253906 0.203125)" xlink:href="#ArialMT-37"/>
      </g>
     </g>
    </g>
    <g id="ytick_12">
     <g id="text_18">
      <!-- Dm7$\longrightarrow$A7   Dm7 -->
      <defs>
       <path d="M -0.140625 0 
L 27.34375 71.578125 
L 37.546875 71.578125 
L 66.84375 0 
L 56.0625 0 
L 47.703125 21.6875 
L 17.78125 21.6875 
L 9.90625 0 
z
M 20.515625 29.390625 
L 44.78125 29.390625 
L 37.3125 49.21875 
Q 33.890625 58.25 32.234375 64.0625 
Q 30.859375 57.171875 28.375 50.390625 
z
" id="ArialMT-41"/>
      </defs>
      <g style="fill:#262626;" transform="translate(38.202148 192.280297)scale(0.11 -0.11)">
       <use transform="translate(0 0.421875)" xlink:href="#ArialMT-44"/>
       <use transform="translate(72.216797 0.421875)" xlink:href="#ArialMT-6d"/>
       <use transform="translate(155.517578 0.421875)" xlink:href="#ArialMT-37"/>
       <use transform="translate(230.615234 0.421875)" xlink:href="#DejaVuSans-27f6"/>
       <use transform="translate(393.457031 0.421875)" xlink:href="#ArialMT-41"/>
       <use transform="translate(460.15625 0.421875)" xlink:href="#ArialMT-37"/>
       <use transform="translate(515.771484 0.421875)" xlink:href="#ArialMT-20"/>
       <use transform="translate(543.554688 0.421875)" xlink:href="#ArialMT-20"/>
       <use transform="translate(571.337891 0.421875)" xlink:href="#ArialMT-20"/>
       <use transform="translate(599.121094 0.421875)" xlink:href="#ArialMT-44"/>
       <use transform="translate(671.337891 0.421875)" xlink:href="#ArialMT-6d"/>
       <use transform="translate(754.638672 0.421875)" xlink:href="#ArialMT-37"/>
      </g>
     </g>
    </g>
    <g id="ytick_13">
     <g id="text_19">
      <!-- C$\longrightarrow$C   C -->
      <g style="fill:#262626;" transform="translate(74.282148 207.009297)scale(0.11 -0.11)">
       <use transform="translate(0 0.203125)" xlink:href="#ArialMT-43"/>
       <use transform="translate(91.699219 0.203125)" xlink:href="#DejaVuSans-27f6"/>
       <use transform="translate(254.541016 0.203125)" xlink:href="#ArialMT-43"/>
       <use transform="translate(326.757812 0.203125)" xlink:href="#ArialMT-20"/>
       <use transform="translate(354.541016 0.203125)" xlink:href="#ArialMT-20"/>
       <use transform="translate(382.324219 0.203125)" xlink:href="#ArialMT-20"/>
       <use transform="translate(410.107422 0.203125)" xlink:href="#ArialMT-43"/>
      </g>
     </g>
    </g>
    <g id="ytick_14">
     <g id="text_20">
      <!-- G7$\longrightarrow$A$\flat$7   G7 -->
      <defs>
       <path d="M 9.125 73.09375 
L 11.328125 73.09375 
L 11.578125 72.796875 
L 11.578125 25.875 
L 11.71875 25.875 
Q 20.015625 37.453125 27.09375 37.453125 
Q 38.1875 37.3125 39.15625 24.75 
Q 37.75 4 8.984375 -0.296875 
L 8.84375 -0.140625 
L 8.84375 72.796875 
z
M 11.578125 20.65625 
L 11.578125 3.328125 
Q 31.984375 8.15625 31.984375 23.046875 
Q 32.03125 23.6875 32.03125 24.265625 
Q 32.03125 31.5 24.75 31.890625 
Q 18.953125 31.890625 11.578125 20.65625 
z
" id="DejaVuSans-266d"/>
      </defs>
      <g style="fill:#262626;" transform="translate(50.192148 221.738297)scale(0.11 -0.11)">
       <use transform="translate(0 0.90625)" xlink:href="#ArialMT-47"/>
       <use transform="translate(77.783203 0.90625)" xlink:href="#ArialMT-37"/>
       <use transform="translate(152.880859 0.90625)" xlink:href="#DejaVuSans-27f6"/>
       <use transform="translate(315.722656 0.90625)" xlink:href="#ArialMT-41"/>
       <use transform="translate(382.421875 0.90625)" xlink:href="#DejaVuSans-266d"/>
       <use transform="translate(429.589844 0.90625)" xlink:href="#ArialMT-37"/>
       <use transform="translate(485.205078 0.90625)" xlink:href="#ArialMT-20"/>
       <use transform="translate(512.988281 0.90625)" xlink:href="#ArialMT-20"/>
       <use transform="translate(540.771484 0.90625)" xlink:href="#ArialMT-20"/>
       <use transform="translate(568.554688 0.90625)" xlink:href="#ArialMT-47"/>
       <use transform="translate(646.337891 0.90625)" xlink:href="#ArialMT-37"/>
      </g>
     </g>
    </g>
    <g id="ytick_15">
     <g id="text_21">
      <!-- B$\flat$7$\longrightarrow$Fm7   B$\flat$7 -->
      <defs>
       <path d="M 7.328125 0 
L 7.328125 71.578125 
L 34.1875 71.578125 
Q 42.390625 71.578125 47.34375 69.40625 
Q 52.296875 67.234375 55.09375 62.71875 
Q 57.90625 58.203125 57.90625 53.265625 
Q 57.90625 48.6875 55.421875 44.625 
Q 52.9375 40.578125 47.90625 38.09375 
Q 54.390625 36.1875 57.875 31.59375 
Q 61.375 27 61.375 20.75 
Q 61.375 15.71875 59.25 11.390625 
Q 57.125 7.078125 54 4.734375 
Q 50.875 2.390625 46.15625 1.1875 
Q 41.453125 0 34.625 0 
z
M 16.796875 41.5 
L 32.28125 41.5 
Q 38.578125 41.5 41.3125 42.328125 
Q 44.921875 43.40625 46.75 45.890625 
Q 48.578125 48.390625 48.578125 52.15625 
Q 48.578125 55.71875 46.875 58.421875 
Q 45.171875 61.140625 41.984375 62.140625 
Q 38.8125 63.140625 31.109375 63.140625 
L 16.796875 63.140625 
z
M 16.796875 8.453125 
L 34.625 8.453125 
Q 39.203125 8.453125 41.0625 8.796875 
Q 44.34375 9.375 46.53125 10.734375 
Q 48.734375 12.109375 50.140625 14.71875 
Q 51.5625 17.328125 51.5625 20.75 
Q 51.5625 24.75 49.515625 27.703125 
Q 47.46875 30.671875 43.828125 31.859375 
Q 40.1875 33.0625 33.34375 33.0625 
L 16.796875 33.0625 
z
" id="ArialMT-42"/>
       <path d="M 8.203125 0 
L 8.203125 71.578125 
L 56.5 71.578125 
L 56.5 63.140625 
L 17.671875 63.140625 
L 17.671875 40.96875 
L 51.265625 40.96875 
L 51.265625 32.515625 
L 17.671875 32.515625 
L 17.671875 0 
z
" id="ArialMT-46"/>
      </defs>
      <g style="fill:#262626;" transform="translate(38.862148 236.467297)scale(0.11 -0.11)">
       <use transform="translate(0 0.90625)" xlink:href="#ArialMT-42"/>
       <use transform="translate(66.699219 0.90625)" xlink:href="#DejaVuSans-266d"/>
       <use transform="translate(113.867188 0.90625)" xlink:href="#ArialMT-37"/>
       <use transform="translate(188.964844 0.90625)" xlink:href="#DejaVuSans-27f6"/>
       <use transform="translate(351.806641 0.90625)" xlink:href="#ArialMT-46"/>
       <use transform="translate(412.890625 0.90625)" xlink:href="#ArialMT-6d"/>
       <use transform="translate(496.191406 0.90625)" xlink:href="#ArialMT-37"/>
       <use transform="translate(551.806641 0.90625)" xlink:href="#ArialMT-20"/>
       <use transform="translate(579.589844 0.90625)" xlink:href="#ArialMT-20"/>
       <use transform="translate(607.373047 0.90625)" xlink:href="#ArialMT-20"/>
       <use transform="translate(635.15625 0.90625)" xlink:href="#ArialMT-42"/>
       <use transform="translate(701.855469 0.90625)" xlink:href="#DejaVuSans-266d"/>
       <use transform="translate(749.023438 0.90625)" xlink:href="#ArialMT-37"/>
      </g>
     </g>
    </g>
    <g id="ytick_16">
     <g id="text_22">
      <!-- A7$\longrightarrow$Em7   A7 -->
      <defs>
       <path d="M 7.90625 0 
L 7.90625 71.578125 
L 59.671875 71.578125 
L 59.671875 63.140625 
L 17.390625 63.140625 
L 17.390625 41.21875 
L 56.984375 41.21875 
L 56.984375 32.8125 
L 17.390625 32.8125 
L 17.390625 8.453125 
L 61.328125 8.453125 
L 61.328125 0 
z
" id="ArialMT-45"/>
      </defs>
      <g style="fill:#262626;" transform="translate(48.652148 251.196297)scale(0.11 -0.11)">
       <use transform="translate(0 0.421875)" xlink:href="#ArialMT-41"/>
       <use transform="translate(66.699219 0.421875)" xlink:href="#ArialMT-37"/>
       <use transform="translate(141.796875 0.421875)" xlink:href="#DejaVuSans-27f6"/>
       <use transform="translate(304.638672 0.421875)" xlink:href="#ArialMT-45"/>
       <use transform="translate(371.337891 0.421875)" xlink:href="#ArialMT-6d"/>
       <use transform="translate(454.638672 0.421875)" xlink:href="#ArialMT-37"/>
       <use transform="translate(510.253906 0.421875)" xlink:href="#ArialMT-20"/>
       <use transform="translate(538.037109 0.421875)" xlink:href="#ArialMT-20"/>
       <use transform="translate(565.820312 0.421875)" xlink:href="#ArialMT-20"/>
       <use transform="translate(593.603516 0.421875)" xlink:href="#ArialMT-41"/>
       <use transform="translate(660.302734 0.421875)" xlink:href="#ArialMT-37"/>
      </g>
     </g>
    </g>
    <g id="ytick_17">
     <g id="text_23">
      <!-- Cm6$\longrightarrow$Cm6   Cm6 -->
      <g style="fill:#262626;" transform="translate(28.412148 265.925297)scale(0.11 -0.11)">
       <use transform="translate(0 0.203125)" xlink:href="#ArialMT-43"/>
       <use transform="translate(72.216797 0.203125)" xlink:href="#ArialMT-6d"/>
       <use transform="translate(155.517578 0.203125)" xlink:href="#ArialMT-36"/>
       <use transform="translate(230.615234 0.203125)" xlink:href="#DejaVuSans-27f6"/>
       <use transform="translate(393.457031 0.203125)" xlink:href="#ArialMT-43"/>
       <use transform="translate(465.673828 0.203125)" xlink:href="#ArialMT-6d"/>
       <use transform="translate(548.974609 0.203125)" xlink:href="#ArialMT-36"/>
       <use transform="translate(604.589844 0.203125)" xlink:href="#ArialMT-20"/>
       <use transform="translate(632.373047 0.203125)" xlink:href="#ArialMT-20"/>
       <use transform="translate(660.15625 0.203125)" xlink:href="#ArialMT-20"/>
       <use transform="translate(687.939453 0.203125)" xlink:href="#ArialMT-43"/>
       <use transform="translate(760.15625 0.203125)" xlink:href="#ArialMT-6d"/>
       <use transform="translate(843.457031 0.203125)" xlink:href="#ArialMT-36"/>
      </g>
     </g>
    </g>
    <g id="ytick_18">
     <g id="text_24">
      <!-- G7$\longrightarrow$A$\flat$^7   G7 -->
      <g style="fill:#262626;" transform="translate(45.022148 280.654297)scale(0.11 -0.11)">
       <use transform="translate(0 0.90625)" xlink:href="#ArialMT-47"/>
       <use transform="translate(77.783203 0.90625)" xlink:href="#ArialMT-37"/>
       <use transform="translate(152.880859 0.90625)" xlink:href="#DejaVuSans-27f6"/>
       <use transform="translate(315.722656 0.90625)" xlink:href="#ArialMT-41"/>
       <use transform="translate(382.421875 0.90625)" xlink:href="#DejaVuSans-266d"/>
       <use transform="translate(429.589844 0.90625)" xlink:href="#ArialMT-5e"/>
       <use transform="translate(476.513672 0.90625)" xlink:href="#ArialMT-37"/>
       <use transform="translate(532.128906 0.90625)" xlink:href="#ArialMT-20"/>
       <use transform="translate(559.912109 0.90625)" xlink:href="#ArialMT-20"/>
       <use transform="translate(587.695312 0.90625)" xlink:href="#ArialMT-20"/>
       <use transform="translate(615.478516 0.90625)" xlink:href="#ArialMT-47"/>
       <use transform="translate(693.261719 0.90625)" xlink:href="#ArialMT-37"/>
      </g>
     </g>
    </g>
    <g id="ytick_19">
     <g id="text_25">
      <!-- Cm$\longrightarrow$G7   Cm -->
      <g style="fill:#262626;" transform="translate(49.202148 295.383297)scale(0.11 -0.11)">
       <use transform="translate(0 0.203125)" xlink:href="#ArialMT-43"/>
       <use transform="translate(72.216797 0.203125)" xlink:href="#ArialMT-6d"/>
       <use transform="translate(175 0.203125)" xlink:href="#DejaVuSans-27f6"/>
       <use transform="translate(337.841797 0.203125)" xlink:href="#ArialMT-47"/>
       <use transform="translate(415.625 0.203125)" xlink:href="#ArialMT-37"/>
       <use transform="translate(471.240234 0.203125)" xlink:href="#ArialMT-20"/>
       <use transform="translate(499.023438 0.203125)" xlink:href="#ArialMT-20"/>
       <use transform="translate(526.806641 0.203125)" xlink:href="#ArialMT-20"/>
       <use transform="translate(554.589844 0.203125)" xlink:href="#ArialMT-43"/>
       <use transform="translate(626.806641 0.203125)" xlink:href="#ArialMT-6d"/>
      </g>
     </g>
    </g>
    <g id="ytick_20">
     <g id="text_26">
      <!-- D7$\longrightarrow$D7   D7 -->
      <g style="fill:#262626;" transform="translate(55.912148 310.112297)scale(0.11 -0.11)">
       <use transform="translate(0 0.421875)" xlink:href="#ArialMT-44"/>
       <use transform="translate(72.216797 0.421875)" xlink:href="#ArialMT-37"/>
       <use transform="translate(147.314453 0.421875)" xlink:href="#DejaVuSans-27f6"/>
       <use transform="translate(310.15625 0.421875)" xlink:href="#ArialMT-44"/>
       <use transform="translate(382.373047 0.421875)" xlink:href="#ArialMT-37"/>
       <use transform="translate(437.988281 0.421875)" xlink:href="#ArialMT-20"/>
       <use transform="translate(465.771484 0.421875)" xlink:href="#ArialMT-20"/>
       <use transform="translate(493.554688 0.421875)" xlink:href="#ArialMT-20"/>
       <use transform="translate(521.337891 0.421875)" xlink:href="#ArialMT-44"/>
       <use transform="translate(593.554688 0.421875)" xlink:href="#ArialMT-37"/>
      </g>
     </g>
    </g>
    <g id="text_27">
     <!-- harmony rewrite rule -->
     <defs>
      <path d="M 6.59375 0 
L 6.59375 71.578125 
L 15.375 71.578125 
L 15.375 45.90625 
Q 21.53125 53.03125 30.90625 53.03125 
Q 36.671875 53.03125 40.921875 50.75 
Q 45.171875 48.484375 47 44.484375 
Q 48.828125 40.484375 48.828125 32.859375 
L 48.828125 0 
L 40.046875 0 
L 40.046875 32.859375 
Q 40.046875 39.453125 37.1875 42.453125 
Q 34.328125 45.453125 29.109375 45.453125 
Q 25.203125 45.453125 21.75 43.421875 
Q 18.3125 41.40625 16.84375 37.9375 
Q 15.375 34.46875 15.375 28.375 
L 15.375 0 
z
" id="ArialMT-68"/>
      <path d="M 40.4375 6.390625 
Q 35.546875 2.25 31.03125 0.53125 
Q 26.515625 -1.171875 21.34375 -1.171875 
Q 12.796875 -1.171875 8.203125 3 
Q 3.609375 7.171875 3.609375 13.671875 
Q 3.609375 17.484375 5.34375 20.625 
Q 7.078125 23.78125 9.890625 25.6875 
Q 12.703125 27.59375 16.21875 28.5625 
Q 18.796875 29.25 24.03125 29.890625 
Q 34.671875 31.15625 39.703125 32.90625 
Q 39.75 34.71875 39.75 35.203125 
Q 39.75 40.578125 37.25 42.78125 
Q 33.890625 45.75 27.25 45.75 
Q 21.046875 45.75 18.09375 43.578125 
Q 15.140625 41.40625 13.71875 35.890625 
L 5.125 37.0625 
Q 6.296875 42.578125 8.984375 45.96875 
Q 11.671875 49.359375 16.75 51.1875 
Q 21.828125 53.03125 28.515625 53.03125 
Q 35.15625 53.03125 39.296875 51.46875 
Q 43.453125 49.90625 45.40625 47.53125 
Q 47.359375 45.171875 48.140625 41.546875 
Q 48.578125 39.3125 48.578125 33.453125 
L 48.578125 21.734375 
Q 48.578125 9.46875 49.140625 6.21875 
Q 49.703125 2.984375 51.375 0 
L 42.1875 0 
Q 40.828125 2.734375 40.4375 6.390625 
z
M 39.703125 26.03125 
Q 34.90625 24.078125 25.34375 22.703125 
Q 19.921875 21.921875 17.671875 20.9375 
Q 15.4375 19.96875 14.203125 18.09375 
Q 12.984375 16.21875 12.984375 13.921875 
Q 12.984375 10.40625 15.640625 8.0625 
Q 18.3125 5.71875 23.4375 5.71875 
Q 28.515625 5.71875 32.46875 7.9375 
Q 36.421875 10.15625 38.28125 14.015625 
Q 39.703125 17 39.703125 22.796875 
z
" id="ArialMT-61"/>
      <path d="M 6.5 0 
L 6.5 51.859375 
L 14.40625 51.859375 
L 14.40625 44 
Q 17.4375 49.515625 20 51.265625 
Q 22.5625 53.03125 25.640625 53.03125 
Q 30.078125 53.03125 34.671875 50.203125 
L 31.640625 42.046875 
Q 28.421875 43.953125 25.203125 43.953125 
Q 22.3125 43.953125 20.015625 42.21875 
Q 17.71875 40.484375 16.75 37.40625 
Q 15.28125 32.71875 15.28125 27.15625 
L 15.28125 0 
z
" id="ArialMT-72"/>
      <path d="M 6.203125 -19.96875 
L 5.21875 -11.71875 
Q 8.109375 -12.5 10.25 -12.5 
Q 13.1875 -12.5 14.9375 -11.515625 
Q 16.703125 -10.546875 17.828125 -8.796875 
Q 18.65625 -7.46875 20.515625 -2.25 
Q 20.75 -1.515625 21.296875 -0.09375 
L 1.609375 51.859375 
L 11.078125 51.859375 
L 21.875 21.828125 
Q 23.96875 16.109375 25.640625 9.8125 
Q 27.15625 15.875 29.25 21.625 
L 40.328125 51.859375 
L 49.125 51.859375 
L 29.390625 -0.875 
Q 26.21875 -9.421875 24.46875 -12.640625 
Q 22.125 -17 19.09375 -19.015625 
Q 16.0625 -21.046875 11.859375 -21.046875 
Q 9.328125 -21.046875 6.203125 -19.96875 
z
" id="ArialMT-79"/>
      <path d="M 42.09375 16.703125 
L 51.171875 15.578125 
Q 49.03125 7.625 43.21875 3.21875 
Q 37.40625 -1.171875 28.375 -1.171875 
Q 17 -1.171875 10.328125 5.828125 
Q 3.65625 12.84375 3.65625 25.484375 
Q 3.65625 38.578125 10.390625 45.796875 
Q 17.140625 53.03125 27.875 53.03125 
Q 38.28125 53.03125 44.875 45.953125 
Q 51.46875 38.875 51.46875 26.03125 
Q 51.46875 25.25 51.421875 23.6875 
L 12.75 23.6875 
Q 13.234375 15.140625 17.578125 10.59375 
Q 21.921875 6.0625 28.421875 6.0625 
Q 33.25 6.0625 36.671875 8.59375 
Q 40.09375 11.140625 42.09375 16.703125 
z
M 13.234375 30.90625 
L 42.1875 30.90625 
Q 41.609375 37.453125 38.875 40.71875 
Q 34.671875 45.796875 27.984375 45.796875 
Q 21.921875 45.796875 17.796875 41.75 
Q 13.671875 37.703125 13.234375 30.90625 
z
" id="ArialMT-65"/>
      <path d="M 16.15625 0 
L 0.296875 51.859375 
L 9.375 51.859375 
L 17.625 21.921875 
L 20.703125 10.796875 
Q 20.90625 11.625 23.390625 21.484375 
L 31.640625 51.859375 
L 40.671875 51.859375 
L 48.4375 21.78125 
L 51.03125 11.859375 
L 54 21.875 
L 62.890625 51.859375 
L 71.4375 51.859375 
L 55.21875 0 
L 46.09375 0 
L 37.84375 31.0625 
L 35.84375 39.890625 
L 25.34375 0 
z
" id="ArialMT-77"/>
      <path d="M 6.640625 61.46875 
L 6.640625 71.578125 
L 15.4375 71.578125 
L 15.4375 61.46875 
z
M 6.640625 0 
L 6.640625 51.859375 
L 15.4375 51.859375 
L 15.4375 0 
z
" id="ArialMT-69"/>
      <path d="M 6.390625 0 
L 6.390625 71.578125 
L 15.1875 71.578125 
L 15.1875 0 
z
" id="ArialMT-6c"/>
     </defs>
     <g style="fill:#262626;" transform="translate(21.886523 220.931563)rotate(-90)scale(0.12 -0.12)">
      <use xlink:href="#ArialMT-68"/>
      <use x="55.615234" xlink:href="#ArialMT-61"/>
      <use x="111.230469" xlink:href="#ArialMT-72"/>
      <use x="144.53125" xlink:href="#ArialMT-6d"/>
      <use x="227.832031" xlink:href="#ArialMT-6f"/>
      <use x="283.447266" xlink:href="#ArialMT-6e"/>
      <use x="339.0625" xlink:href="#ArialMT-79"/>
      <use x="389.0625" xlink:href="#ArialMT-20"/>
      <use x="416.845703" xlink:href="#ArialMT-72"/>
      <use x="450.146484" xlink:href="#ArialMT-65"/>
      <use x="505.761719" xlink:href="#ArialMT-77"/>
      <use x="577.978516" xlink:href="#ArialMT-72"/>
      <use x="611.279297" xlink:href="#ArialMT-69"/>
      <use x="633.496094" xlink:href="#ArialMT-74"/>
      <use x="661.279297" xlink:href="#ArialMT-65"/>
      <use x="716.894531" xlink:href="#ArialMT-20"/>
      <use x="744.677734" xlink:href="#ArialMT-72"/>
      <use x="777.978516" xlink:href="#ArialMT-75"/>
      <use x="833.59375" xlink:href="#ArialMT-6c"/>
      <use x="855.810547" xlink:href="#ArialMT-65"/>
     </g>
    </g>
   </g>
   <g id="patch_3">
    <path clip-path="url(#pc75dfd84a3)" d="M 136.912148 20.4329 
L 330.066772 20.4329 
L 330.066772 32.2161 
L 136.912148 32.2161 
z
" style="fill:#999999;stroke:#ffffff;stroke-linejoin:miter;"/>
   </g>
   <g id="patch_4">
    <path clip-path="url(#pc75dfd84a3)" d="M 136.912148 35.1619 
L 277.999004 35.1619 
L 277.999004 46.9451 
L 136.912148 46.9451 
z
" style="fill:#999999;stroke:#ffffff;stroke-linejoin:miter;"/>
   </g>
   <g id="patch_5">
    <path clip-path="url(#pc75dfd84a3)" d="M 136.912148 49.8909 
L 246.086501 49.8909 
L 246.086501 61.6741 
L 136.912148 61.6741 
z
" style="fill:#999999;stroke:#ffffff;stroke-linejoin:miter;"/>
   </g>
   <g id="patch_6">
    <path clip-path="url(#pc75dfd84a3)" d="M 136.912148 64.6199 
L 210.814787 64.6199 
L 210.814787 76.4031 
L 136.912148 76.4031 
z
" style="fill:#999999;stroke:#ffffff;stroke-linejoin:miter;"/>
   </g>
   <g id="patch_7">
    <path clip-path="url(#pc75dfd84a3)" d="M 136.912148 79.3489 
L 207.455576 79.3489 
L 207.455576 91.1321 
L 136.912148 91.1321 
z
" style="fill:#999999;stroke:#ffffff;stroke-linejoin:miter;"/>
   </g>
   <g id="patch_8">
    <path clip-path="url(#pc75dfd84a3)" d="M 136.912148 94.0779 
L 207.455576 94.0779 
L 207.455576 105.8611 
L 136.912148 105.8611 
z
" style="fill:#999999;stroke:#ffffff;stroke-linejoin:miter;"/>
   </g>
   <g id="patch_9">
    <path clip-path="url(#pc75dfd84a3)" d="M 136.912148 108.8069 
L 204.096365 108.8069 
L 204.096365 120.5901 
L 136.912148 120.5901 
z
" style="fill:#999999;stroke:#ffffff;stroke-linejoin:miter;"/>
   </g>
   <g id="patch_10">
    <path clip-path="url(#pc75dfd84a3)" d="M 136.912148 123.5359 
L 200.737154 123.5359 
L 200.737154 135.3191 
L 136.912148 135.3191 
z
" style="fill:#999999;stroke:#ffffff;stroke-linejoin:miter;"/>
   </g>
   <g id="patch_11">
    <path clip-path="url(#pc75dfd84a3)" d="M 136.912148 138.2649 
L 199.057549 138.2649 
L 199.057549 150.0481 
L 136.912148 150.0481 
z
" style="fill:#999999;stroke:#ffffff;stroke-linejoin:miter;"/>
   </g>
   <g id="patch_12">
    <path clip-path="url(#pc75dfd84a3)" d="M 136.912148 152.9939 
L 197.377944 152.9939 
L 197.377944 164.7771 
L 136.912148 164.7771 
z
" style="fill:#999999;stroke:#ffffff;stroke-linejoin:miter;"/>
   </g>
   <g id="patch_13">
    <path clip-path="url(#pc75dfd84a3)" d="M 136.912148 167.7229 
L 194.018733 167.7229 
L 194.018733 179.5061 
L 136.912148 179.5061 
z
" style="fill:#999999;stroke:#ffffff;stroke-linejoin:miter;"/>
   </g>
   <g id="patch_14">
    <path clip-path="url(#pc75dfd84a3)" d="M 136.912148 182.4519 
L 192.339127 182.4519 
L 192.339127 194.2351 
L 136.912148 194.2351 
z
" style="fill:#999999;stroke:#ffffff;stroke-linejoin:miter;"/>
   </g>
   <g id="patch_15">
    <path clip-path="url(#pc75dfd84a3)" d="M 136.912148 197.1809 
L 183.9411 197.1809 
L 183.9411 208.9641 
L 136.912148 208.9641 
z
" style="fill:#999999;stroke:#ffffff;stroke-linejoin:miter;"/>
   </g>
   <g id="patch_16">
    <path clip-path="url(#pc75dfd84a3)" d="M 136.912148 211.9099 
L 180.581889 211.9099 
L 180.581889 223.6931 
L 136.912148 223.6931 
z
" style="fill:#999999;stroke:#ffffff;stroke-linejoin:miter;"/>
   </g>
   <g id="patch_17">
    <path clip-path="url(#pc75dfd84a3)" d="M 136.912148 226.6389 
L 178.902284 226.6389 
L 178.902284 238.4221 
L 136.912148 238.4221 
z
" style="fill:#999999;stroke:#ffffff;stroke-linejoin:miter;"/>
   </g>
   <g id="patch_18">
    <path clip-path="url(#pc75dfd84a3)" d="M 136.912148 241.3679 
L 177.222679 241.3679 
L 177.222679 253.1511 
L 136.912148 253.1511 
z
" style="fill:#999999;stroke:#ffffff;stroke-linejoin:miter;"/>
   </g>
   <g id="patch_19">
    <path clip-path="url(#pc75dfd84a3)" d="M 136.912148 256.0969 
L 173.863468 256.0969 
L 173.863468 267.8801 
L 136.912148 267.8801 
z
" style="fill:#999999;stroke:#ffffff;stroke-linejoin:miter;"/>
   </g>
   <g id="patch_20">
    <path clip-path="url(#pc75dfd84a3)" d="M 136.912148 270.8259 
L 172.183862 270.8259 
L 172.183862 282.6091 
L 136.912148 282.6091 
z
" style="fill:#999999;stroke:#ffffff;stroke-linejoin:miter;"/>
   </g>
   <g id="patch_21">
    <path clip-path="url(#pc75dfd84a3)" d="M 136.912148 285.5549 
L 167.145046 285.5549 
L 167.145046 297.3381 
L 136.912148 297.3381 
z
" style="fill:#999999;stroke:#ffffff;stroke-linejoin:miter;"/>
   </g>
   <g id="patch_22">
    <path clip-path="url(#pc75dfd84a3)" d="M 136.912148 300.2839 
L 167.145046 300.2839 
L 167.145046 312.0671 
L 136.912148 312.0671 
z
" style="fill:#999999;stroke:#ffffff;stroke-linejoin:miter;"/>
   </g>
   <g id="line2d_6">
    <path clip-path="url(#pc75dfd84a3)" d="M 0 0 
" style="fill:none;stroke:#424242;stroke-linecap:round;stroke-width:2.7;"/>
   </g>
   <g id="line2d_7">
    <path clip-path="url(#pc75dfd84a3)" d="M 0 0 
" style="fill:none;stroke:#424242;stroke-linecap:round;stroke-width:2.7;"/>
   </g>
   <g id="line2d_8">
    <path clip-path="url(#pc75dfd84a3)" d="M 0 0 
" style="fill:none;stroke:#424242;stroke-linecap:round;stroke-width:2.7;"/>
   </g>
   <g id="line2d_9">
    <path clip-path="url(#pc75dfd84a3)" d="M 0 0 
" style="fill:none;stroke:#424242;stroke-linecap:round;stroke-width:2.7;"/>
   </g>
   <g id="line2d_10">
    <path clip-path="url(#pc75dfd84a3)" d="M 0 0 
" style="fill:none;stroke:#424242;stroke-linecap:round;stroke-width:2.7;"/>
   </g>
   <g id="line2d_11">
    <path clip-path="url(#pc75dfd84a3)" d="M 0 0 
" style="fill:none;stroke:#424242;stroke-linecap:round;stroke-width:2.7;"/>
   </g>
   <g id="line2d_12">
    <path clip-path="url(#pc75dfd84a3)" d="M 0 0 
" style="fill:none;stroke:#424242;stroke-linecap:round;stroke-width:2.7;"/>
   </g>
   <g id="line2d_13">
    <path clip-path="url(#pc75dfd84a3)" d="M 0 0 
" style="fill:none;stroke:#424242;stroke-linecap:round;stroke-width:2.7;"/>
   </g>
   <g id="line2d_14">
    <path clip-path="url(#pc75dfd84a3)" d="M 0 0 
" style="fill:none;stroke:#424242;stroke-linecap:round;stroke-width:2.7;"/>
   </g>
   <g id="line2d_15">
    <path clip-path="url(#pc75dfd84a3)" d="M 0 0 
" style="fill:none;stroke:#424242;stroke-linecap:round;stroke-width:2.7;"/>
   </g>
   <g id="line2d_16">
    <path clip-path="url(#pc75dfd84a3)" d="M 0 0 
" style="fill:none;stroke:#424242;stroke-linecap:round;stroke-width:2.7;"/>
   </g>
   <g id="line2d_17">
    <path clip-path="url(#pc75dfd84a3)" d="M 0 0 
" style="fill:none;stroke:#424242;stroke-linecap:round;stroke-width:2.7;"/>
   </g>
   <g id="line2d_18">
    <path clip-path="url(#pc75dfd84a3)" d="M 0 0 
" style="fill:none;stroke:#424242;stroke-linecap:round;stroke-width:2.7;"/>
   </g>
   <g id="line2d_19">
    <path clip-path="url(#pc75dfd84a3)" d="M 0 0 
" style="fill:none;stroke:#424242;stroke-linecap:round;stroke-width:2.7;"/>
   </g>
   <g id="line2d_20">
    <path clip-path="url(#pc75dfd84a3)" d="M 0 0 
" style="fill:none;stroke:#424242;stroke-linecap:round;stroke-width:2.7;"/>
   </g>
   <g id="line2d_21">
    <path clip-path="url(#pc75dfd84a3)" d="M 0 0 
" style="fill:none;stroke:#424242;stroke-linecap:round;stroke-width:2.7;"/>
   </g>
   <g id="line2d_22">
    <path clip-path="url(#pc75dfd84a3)" d="M 0 0 
" style="fill:none;stroke:#424242;stroke-linecap:round;stroke-width:2.7;"/>
   </g>
   <g id="line2d_23">
    <path clip-path="url(#pc75dfd84a3)" d="M 0 0 
" style="fill:none;stroke:#424242;stroke-linecap:round;stroke-width:2.7;"/>
   </g>
   <g id="line2d_24">
    <path clip-path="url(#pc75dfd84a3)" d="M 0 0 
" style="fill:none;stroke:#424242;stroke-linecap:round;stroke-width:2.7;"/>
   </g>
   <g id="line2d_25">
    <path clip-path="url(#pc75dfd84a3)" d="M 0 0 
" style="fill:none;stroke:#424242;stroke-linecap:round;stroke-width:2.7;"/>
   </g>
   <g id="patch_23">
    <path d="M 136.912148 313.54 
L 136.912148 18.96 
" style="fill:none;stroke:#cccccc;stroke-linecap:square;stroke-linejoin:miter;stroke-width:1.25;"/>
   </g>
   <g id="patch_24">
    <path d="M 136.912148 313.54 
L 339.724503 313.54 
" style="fill:none;stroke:#cccccc;stroke-linecap:square;stroke-linejoin:miter;stroke-width:1.25;"/>
   </g>
  </g>
 </g>
 <defs>
  <clipPath id="pc75dfd84a3">
   <rect height="294.58" width="202.812355" x="136.912148" y="18.96"/>
  </clipPath>
 </defs>
</svg>
